<svg xmlns="http://www.w3.org/2000/svg" xmlns:xlink="http://www.w3.org/1999/xlink" width="600" height="400" viewBox="0 0 2400 1600">
<defs>
  <clipPath id="clip550">
    <rect x="0" y="0" width="2400" height="1600"></rect>
  </clipPath>
</defs>
<path clip-path="url(#clip550)" d="
M0 1600 L2400 1600 L2400 0 L0 0  Z
  " fill="#ffffff" fill-rule="evenodd" fill-opacity="1"></path>
<defs>
  <clipPath id="clip551">
    <rect x="480" y="0" width="1681" height="1600"></rect>
  </clipPath>
</defs>
<path clip-path="url(#clip550)" d="
M203.964 1423.18 L2352.76 1423.18 L2352.76 47.2441 L203.964 47.2441  Z
  " fill="#ffffff" fill-rule="evenodd" fill-opacity="1"></path>
<defs>
  <clipPath id="clip552">
    <rect x="203" y="47" width="2150" height="1377"></rect>
  </clipPath>
</defs>
<polyline clip-path="url(#clip552)" style="stroke:#000000; stroke-linecap:round; stroke-linejoin:round; stroke-width:2; stroke-opacity:0.1; fill:none" points="
  432.032,1423.18 432.032,47.2441 
  "></polyline>
<polyline clip-path="url(#clip552)" style="stroke:#000000; stroke-linecap:round; stroke-linejoin:round; stroke-width:2; stroke-opacity:0.1; fill:none" points="
  745.302,1423.18 745.302,47.2441 
  "></polyline>
<polyline clip-path="url(#clip552)" style="stroke:#000000; stroke-linecap:round; stroke-linejoin:round; stroke-width:2; stroke-opacity:0.1; fill:none" points="
  1058.57,1423.18 1058.57,47.2441 
  "></polyline>
<polyline clip-path="url(#clip552)" style="stroke:#000000; stroke-linecap:round; stroke-linejoin:round; stroke-width:2; stroke-opacity:0.1; fill:none" points="
  1371.84,1423.18 1371.84,47.2441 
  "></polyline>
<polyline clip-path="url(#clip552)" style="stroke:#000000; stroke-linecap:round; stroke-linejoin:round; stroke-width:2; stroke-opacity:0.1; fill:none" points="
  1685.11,1423.18 1685.11,47.2441 
  "></polyline>
<polyline clip-path="url(#clip552)" style="stroke:#000000; stroke-linecap:round; stroke-linejoin:round; stroke-width:2; stroke-opacity:0.1; fill:none" points="
  1998.38,1423.18 1998.38,47.2441 
  "></polyline>
<polyline clip-path="url(#clip552)" style="stroke:#000000; stroke-linecap:round; stroke-linejoin:round; stroke-width:2; stroke-opacity:0.1; fill:none" points="
  2311.65,1423.18 2311.65,47.2441 
  "></polyline>
<polyline clip-path="url(#clip550)" style="stroke:#000000; stroke-linecap:round; stroke-linejoin:round; stroke-width:4; stroke-opacity:1; fill:none" points="
  203.964,1423.18 2352.76,1423.18 
  "></polyline>
<polyline clip-path="url(#clip550)" style="stroke:#000000; stroke-linecap:round; stroke-linejoin:round; stroke-width:4; stroke-opacity:1; fill:none" points="
  432.032,1423.18 432.032,1404.28 
  "></polyline>
<polyline clip-path="url(#clip550)" style="stroke:#000000; stroke-linecap:round; stroke-linejoin:round; stroke-width:4; stroke-opacity:1; fill:none" points="
  745.302,1423.18 745.302,1404.28 
  "></polyline>
<polyline clip-path="url(#clip550)" style="stroke:#000000; stroke-linecap:round; stroke-linejoin:round; stroke-width:4; stroke-opacity:1; fill:none" points="
  1058.57,1423.18 1058.57,1404.28 
  "></polyline>
<polyline clip-path="url(#clip550)" style="stroke:#000000; stroke-linecap:round; stroke-linejoin:round; stroke-width:4; stroke-opacity:1; fill:none" points="
  1371.84,1423.18 1371.84,1404.28 
  "></polyline>
<polyline clip-path="url(#clip550)" style="stroke:#000000; stroke-linecap:round; stroke-linejoin:round; stroke-width:4; stroke-opacity:1; fill:none" points="
  1685.11,1423.18 1685.11,1404.28 
  "></polyline>
<polyline clip-path="url(#clip550)" style="stroke:#000000; stroke-linecap:round; stroke-linejoin:round; stroke-width:4; stroke-opacity:1; fill:none" points="
  1998.38,1423.18 1998.38,1404.28 
  "></polyline>
<polyline clip-path="url(#clip550)" style="stroke:#000000; stroke-linecap:round; stroke-linejoin:round; stroke-width:4; stroke-opacity:1; fill:none" points="
  2311.65,1423.18 2311.65,1404.28 
  "></polyline>
<path clip-path="url(#clip550)" d="M391.639 1481.64 L399.278 1481.64 L399.278 1455.28 L390.968 1456.95 L390.968 1452.69 L399.232 1451.02 L403.908 1451.02 L403.908 1481.64 L411.546 1481.64 L411.546 1485.58 L391.639 1485.58 L391.639 1481.64 Z" fill="#000000" fill-rule="evenodd" fill-opacity="1"></path><path clip-path="url(#clip550)" d="M430.991 1469.17 Q427.657 1469.17 425.736 1470.95 Q423.838 1472.73 423.838 1475.86 Q423.838 1478.98 425.736 1480.77 Q427.657 1482.55 430.991 1482.55 Q434.324 1482.55 436.245 1480.77 Q438.167 1478.96 438.167 1475.86 Q438.167 1472.73 436.245 1470.95 Q434.347 1469.17 430.991 1469.17 M426.315 1467.18 Q423.306 1466.44 421.616 1464.38 Q419.949 1462.32 419.949 1459.35 Q419.949 1455.21 422.889 1452.8 Q425.852 1450.39 430.991 1450.39 Q436.153 1450.39 439.093 1452.8 Q442.032 1455.21 442.032 1459.35 Q442.032 1462.32 440.343 1464.38 Q438.676 1466.44 435.69 1467.18 Q439.069 1467.96 440.944 1470.26 Q442.843 1472.55 442.843 1475.86 Q442.843 1480.88 439.764 1483.57 Q436.708 1486.25 430.991 1486.25 Q425.273 1486.25 422.194 1483.57 Q419.139 1480.88 419.139 1475.86 Q419.139 1472.55 421.037 1470.26 Q422.935 1467.96 426.315 1467.18 M424.602 1459.79 Q424.602 1462.48 426.269 1463.98 Q427.958 1465.49 430.991 1465.49 Q434 1465.49 435.69 1463.98 Q437.403 1462.48 437.403 1459.79 Q437.403 1457.11 435.69 1455.6 Q434 1454.1 430.991 1454.1 Q427.958 1454.1 426.269 1455.6 Q424.602 1457.11 424.602 1459.79 Z" fill="#000000" fill-rule="evenodd" fill-opacity="1"></path><path clip-path="url(#clip550)" d="M461.153 1454.1 Q457.542 1454.1 455.713 1457.66 Q453.907 1461.2 453.907 1468.33 Q453.907 1475.44 455.713 1479.01 Q457.542 1482.55 461.153 1482.55 Q464.787 1482.55 466.592 1479.01 Q468.421 1475.44 468.421 1468.33 Q468.421 1461.2 466.592 1457.66 Q464.787 1454.1 461.153 1454.1 M461.153 1450.39 Q466.963 1450.39 470.018 1455 Q473.097 1459.58 473.097 1468.33 Q473.097 1477.06 470.018 1481.67 Q466.963 1486.25 461.153 1486.25 Q455.342 1486.25 452.264 1481.67 Q449.208 1477.06 449.208 1468.33 Q449.208 1459.58 452.264 1455 Q455.342 1450.39 461.153 1450.39 Z" fill="#000000" fill-rule="evenodd" fill-opacity="1"></path><path clip-path="url(#clip550)" d="M708.995 1481.64 L725.314 1481.64 L725.314 1485.58 L703.37 1485.58 L703.37 1481.64 Q706.032 1478.89 710.615 1474.26 Q715.222 1469.61 716.402 1468.27 Q718.648 1465.74 719.527 1464.01 Q720.43 1462.25 720.43 1460.56 Q720.43 1457.8 718.485 1456.07 Q716.564 1454.33 713.462 1454.33 Q711.263 1454.33 708.81 1455.09 Q706.379 1455.86 703.601 1457.41 L703.601 1452.69 Q706.425 1451.55 708.879 1450.97 Q711.333 1450.39 713.37 1450.39 Q718.74 1450.39 721.935 1453.08 Q725.129 1455.77 725.129 1460.26 Q725.129 1462.39 724.319 1464.31 Q723.532 1466.2 721.425 1468.8 Q720.847 1469.47 717.745 1472.69 Q714.643 1475.88 708.995 1481.64 Z" fill="#000000" fill-rule="evenodd" fill-opacity="1"></path><path clip-path="url(#clip550)" d="M745.129 1454.1 Q741.518 1454.1 739.689 1457.66 Q737.884 1461.2 737.884 1468.33 Q737.884 1475.44 739.689 1479.01 Q741.518 1482.55 745.129 1482.55 Q748.763 1482.55 750.569 1479.01 Q752.397 1475.44 752.397 1468.33 Q752.397 1461.2 750.569 1457.66 Q748.763 1454.1 745.129 1454.1 M745.129 1450.39 Q750.939 1450.39 753.995 1455 Q757.073 1459.58 757.073 1468.33 Q757.073 1477.06 753.995 1481.67 Q750.939 1486.25 745.129 1486.25 Q739.319 1486.25 736.24 1481.67 Q733.184 1477.06 733.184 1468.33 Q733.184 1459.58 736.24 1455 Q739.319 1450.39 745.129 1450.39 Z" fill="#000000" fill-rule="evenodd" fill-opacity="1"></path><path clip-path="url(#clip550)" d="M775.291 1454.1 Q771.68 1454.1 769.851 1457.66 Q768.045 1461.2 768.045 1468.33 Q768.045 1475.44 769.851 1479.01 Q771.68 1482.55 775.291 1482.55 Q778.925 1482.55 780.731 1479.01 Q782.559 1475.44 782.559 1468.33 Q782.559 1461.2 780.731 1457.66 Q778.925 1454.1 775.291 1454.1 M775.291 1450.39 Q781.101 1450.39 784.156 1455 Q787.235 1459.58 787.235 1468.33 Q787.235 1477.06 784.156 1481.67 Q781.101 1486.25 775.291 1486.25 Q769.481 1486.25 766.402 1481.67 Q763.346 1477.06 763.346 1468.33 Q763.346 1459.58 766.402 1455 Q769.481 1450.39 775.291 1450.39 Z" fill="#000000" fill-rule="evenodd" fill-opacity="1"></path><path clip-path="url(#clip550)" d="M1022.26 1481.64 L1038.58 1481.64 L1038.58 1485.58 L1016.64 1485.58 L1016.64 1481.64 Q1019.3 1478.89 1023.89 1474.26 Q1028.49 1469.61 1029.67 1468.27 Q1031.92 1465.74 1032.8 1464.01 Q1033.7 1462.25 1033.7 1460.56 Q1033.7 1457.8 1031.76 1456.07 Q1029.83 1454.33 1026.73 1454.33 Q1024.53 1454.33 1022.08 1455.09 Q1019.65 1455.86 1016.87 1457.41 L1016.87 1452.69 Q1019.7 1451.55 1022.15 1450.97 Q1024.6 1450.39 1026.64 1450.39 Q1032.01 1450.39 1035.2 1453.08 Q1038.4 1455.77 1038.4 1460.26 Q1038.4 1462.39 1037.59 1464.31 Q1036.8 1466.2 1034.7 1468.8 Q1034.12 1469.47 1031.01 1472.69 Q1027.91 1475.88 1022.26 1481.64 Z" fill="#000000" fill-rule="evenodd" fill-opacity="1"></path><path clip-path="url(#clip550)" d="M1052.43 1481.64 L1068.75 1481.64 L1068.75 1485.58 L1046.8 1485.58 L1046.8 1481.64 Q1049.46 1478.89 1054.05 1474.26 Q1058.65 1469.61 1059.83 1468.27 Q1062.08 1465.74 1062.96 1464.01 Q1063.86 1462.25 1063.86 1460.56 Q1063.86 1457.8 1061.92 1456.07 Q1060 1454.33 1056.89 1454.33 Q1054.7 1454.33 1052.24 1455.09 Q1049.81 1455.86 1047.03 1457.41 L1047.03 1452.69 Q1049.86 1451.55 1052.31 1450.97 Q1054.76 1450.39 1056.8 1450.39 Q1062.17 1450.39 1065.37 1453.08 Q1068.56 1455.77 1068.56 1460.26 Q1068.56 1462.39 1067.75 1464.31 Q1066.96 1466.2 1064.86 1468.8 Q1064.28 1469.47 1061.18 1472.69 Q1058.07 1475.88 1052.43 1481.64 Z" fill="#000000" fill-rule="evenodd" fill-opacity="1"></path><path clip-path="url(#clip550)" d="M1088.56 1454.1 Q1084.95 1454.1 1083.12 1457.66 Q1081.32 1461.2 1081.32 1468.33 Q1081.32 1475.44 1083.12 1479.01 Q1084.95 1482.55 1088.56 1482.55 Q1092.2 1482.55 1094 1479.01 Q1095.83 1475.44 1095.83 1468.33 Q1095.83 1461.2 1094 1457.66 Q1092.2 1454.1 1088.56 1454.1 M1088.56 1450.39 Q1094.37 1450.39 1097.43 1455 Q1100.51 1459.58 1100.51 1468.33 Q1100.51 1477.06 1097.43 1481.67 Q1094.37 1486.25 1088.56 1486.25 Q1082.75 1486.25 1079.67 1481.67 Q1076.62 1477.06 1076.62 1468.33 Q1076.62 1459.58 1079.67 1455 Q1082.75 1450.39 1088.56 1450.39 Z" fill="#000000" fill-rule="evenodd" fill-opacity="1"></path><path clip-path="url(#clip550)" d="M1335.53 1481.64 L1351.85 1481.64 L1351.85 1485.58 L1329.91 1485.58 L1329.91 1481.64 Q1332.57 1478.89 1337.16 1474.26 Q1341.76 1469.61 1342.94 1468.27 Q1345.19 1465.74 1346.07 1464.01 Q1346.97 1462.25 1346.97 1460.56 Q1346.97 1457.8 1345.03 1456.07 Q1343.1 1454.33 1340 1454.33 Q1337.8 1454.33 1335.35 1455.09 Q1332.92 1455.86 1330.14 1457.41 L1330.14 1452.69 Q1332.97 1451.55 1335.42 1450.97 Q1337.87 1450.39 1339.91 1450.39 Q1345.28 1450.39 1348.47 1453.08 Q1351.67 1455.77 1351.67 1460.26 Q1351.67 1462.39 1350.86 1464.31 Q1350.07 1466.2 1347.97 1468.8 Q1347.39 1469.47 1344.28 1472.69 Q1341.18 1475.88 1335.53 1481.64 Z" fill="#000000" fill-rule="evenodd" fill-opacity="1"></path><path clip-path="url(#clip550)" d="M1374.52 1455.09 L1362.71 1473.54 L1374.52 1473.54 L1374.52 1455.09 M1373.29 1451.02 L1379.17 1451.02 L1379.17 1473.54 L1384.1 1473.54 L1384.1 1477.43 L1379.17 1477.43 L1379.17 1485.58 L1374.52 1485.58 L1374.52 1477.43 L1358.91 1477.43 L1358.91 1472.92 L1373.29 1451.02 Z" fill="#000000" fill-rule="evenodd" fill-opacity="1"></path><path clip-path="url(#clip550)" d="M1401.83 1454.1 Q1398.22 1454.1 1396.39 1457.66 Q1394.59 1461.2 1394.59 1468.33 Q1394.59 1475.44 1396.39 1479.01 Q1398.22 1482.55 1401.83 1482.55 Q1405.47 1482.55 1407.27 1479.01 Q1409.1 1475.44 1409.1 1468.33 Q1409.1 1461.2 1407.27 1457.66 Q1405.47 1454.1 1401.83 1454.1 M1401.83 1450.39 Q1407.64 1450.39 1410.7 1455 Q1413.78 1459.58 1413.78 1468.33 Q1413.78 1477.06 1410.7 1481.67 Q1407.64 1486.25 1401.83 1486.25 Q1396.02 1486.25 1392.94 1481.67 Q1389.89 1477.06 1389.89 1468.33 Q1389.89 1459.58 1392.94 1455 Q1396.02 1450.39 1401.83 1450.39 Z" fill="#000000" fill-rule="evenodd" fill-opacity="1"></path><path clip-path="url(#clip550)" d="M1648.8 1481.64 L1665.12 1481.64 L1665.12 1485.58 L1643.18 1485.58 L1643.18 1481.64 Q1645.84 1478.89 1650.43 1474.26 Q1655.03 1469.61 1656.21 1468.27 Q1658.46 1465.74 1659.34 1464.01 Q1660.24 1462.25 1660.24 1460.56 Q1660.24 1457.8 1658.3 1456.07 Q1656.37 1454.33 1653.27 1454.33 Q1651.07 1454.33 1648.62 1455.09 Q1646.19 1455.86 1643.41 1457.41 L1643.41 1452.69 Q1646.24 1451.55 1648.69 1450.97 Q1651.14 1450.39 1653.18 1450.39 Q1658.55 1450.39 1661.74 1453.08 Q1664.94 1455.77 1664.94 1460.26 Q1664.94 1462.39 1664.13 1464.31 Q1663.34 1466.2 1661.24 1468.8 Q1660.66 1469.47 1657.55 1472.69 Q1654.45 1475.88 1648.8 1481.64 Z" fill="#000000" fill-rule="evenodd" fill-opacity="1"></path><path clip-path="url(#clip550)" d="M1685.52 1466.44 Q1682.37 1466.44 1680.52 1468.59 Q1678.69 1470.74 1678.69 1474.49 Q1678.69 1478.22 1680.52 1480.39 Q1682.37 1482.55 1685.52 1482.55 Q1688.67 1482.55 1690.49 1480.39 Q1692.35 1478.22 1692.35 1474.49 Q1692.35 1470.74 1690.49 1468.59 Q1688.67 1466.44 1685.52 1466.44 M1694.8 1451.78 L1694.8 1456.04 Q1693.04 1455.21 1691.24 1454.77 Q1689.45 1454.33 1687.69 1454.33 Q1683.06 1454.33 1680.61 1457.45 Q1678.18 1460.58 1677.83 1466.9 Q1679.2 1464.89 1681.26 1463.82 Q1683.32 1462.73 1685.8 1462.73 Q1691 1462.73 1694.01 1465.9 Q1697.05 1469.05 1697.05 1474.49 Q1697.05 1479.82 1693.9 1483.03 Q1690.75 1486.25 1685.52 1486.25 Q1679.52 1486.25 1676.35 1481.67 Q1673.18 1477.06 1673.18 1468.33 Q1673.18 1460.14 1677.07 1455.28 Q1680.96 1450.39 1687.51 1450.39 Q1689.27 1450.39 1691.05 1450.74 Q1692.86 1451.09 1694.8 1451.78 Z" fill="#000000" fill-rule="evenodd" fill-opacity="1"></path><path clip-path="url(#clip550)" d="M1715.1 1454.1 Q1711.49 1454.1 1709.66 1457.66 Q1707.86 1461.2 1707.86 1468.33 Q1707.86 1475.44 1709.66 1479.01 Q1711.49 1482.55 1715.1 1482.55 Q1718.74 1482.55 1720.54 1479.01 Q1722.37 1475.44 1722.37 1468.33 Q1722.37 1461.2 1720.54 1457.66 Q1718.74 1454.1 1715.1 1454.1 M1715.1 1450.39 Q1720.91 1450.39 1723.97 1455 Q1727.05 1459.58 1727.05 1468.33 Q1727.05 1477.06 1723.97 1481.67 Q1720.91 1486.25 1715.1 1486.25 Q1709.29 1486.25 1706.21 1481.67 Q1703.16 1477.06 1703.16 1468.33 Q1703.16 1459.58 1706.21 1455 Q1709.29 1450.39 1715.1 1450.39 Z" fill="#000000" fill-rule="evenodd" fill-opacity="1"></path><path clip-path="url(#clip550)" d="M1962.08 1481.64 L1978.39 1481.64 L1978.39 1485.58 L1956.45 1485.58 L1956.45 1481.64 Q1959.11 1478.89 1963.7 1474.26 Q1968.3 1469.61 1969.48 1468.27 Q1971.73 1465.74 1972.61 1464.01 Q1973.51 1462.25 1973.51 1460.56 Q1973.51 1457.8 1971.57 1456.07 Q1969.64 1454.33 1966.54 1454.33 Q1964.34 1454.33 1961.89 1455.09 Q1959.46 1455.86 1956.68 1457.41 L1956.68 1452.69 Q1959.51 1451.55 1961.96 1450.97 Q1964.41 1450.39 1966.45 1450.39 Q1971.82 1450.39 1975.01 1453.08 Q1978.21 1455.77 1978.21 1460.26 Q1978.21 1462.39 1977.4 1464.31 Q1976.61 1466.2 1974.51 1468.8 Q1973.93 1469.47 1970.83 1472.69 Q1967.72 1475.88 1962.08 1481.64 Z" fill="#000000" fill-rule="evenodd" fill-opacity="1"></path><path clip-path="url(#clip550)" d="M1998.21 1469.17 Q1994.88 1469.17 1992.95 1470.95 Q1991.06 1472.73 1991.06 1475.86 Q1991.06 1478.98 1992.95 1480.77 Q1994.88 1482.55 1998.21 1482.55 Q2001.54 1482.55 2003.46 1480.77 Q2005.39 1478.96 2005.39 1475.86 Q2005.39 1472.73 2003.46 1470.95 Q2001.57 1469.17 1998.21 1469.17 M1993.53 1467.18 Q1990.52 1466.44 1988.83 1464.38 Q1987.17 1462.32 1987.17 1459.35 Q1987.17 1455.21 1990.11 1452.8 Q1993.07 1450.39 1998.21 1450.39 Q2003.37 1450.39 2006.31 1452.8 Q2009.25 1455.21 2009.25 1459.35 Q2009.25 1462.32 2007.56 1464.38 Q2005.89 1466.44 2002.91 1467.18 Q2006.29 1467.96 2008.16 1470.26 Q2010.06 1472.55 2010.06 1475.86 Q2010.06 1480.88 2006.98 1483.57 Q2003.93 1486.25 1998.21 1486.25 Q1992.49 1486.25 1989.41 1483.57 Q1986.36 1480.88 1986.36 1475.86 Q1986.36 1472.55 1988.26 1470.26 Q1990.15 1467.96 1993.53 1467.18 M1991.82 1459.79 Q1991.82 1462.48 1993.49 1463.98 Q1995.18 1465.49 1998.21 1465.49 Q2001.22 1465.49 2002.91 1463.98 Q2004.62 1462.48 2004.62 1459.79 Q2004.62 1457.11 2002.91 1455.6 Q2001.22 1454.1 1998.21 1454.1 Q1995.18 1454.1 1993.49 1455.6 Q1991.82 1457.11 1991.82 1459.79 Z" fill="#000000" fill-rule="evenodd" fill-opacity="1"></path><path clip-path="url(#clip550)" d="M2028.37 1454.1 Q2024.76 1454.1 2022.93 1457.66 Q2021.13 1461.2 2021.13 1468.33 Q2021.13 1475.44 2022.93 1479.01 Q2024.76 1482.55 2028.37 1482.55 Q2032.01 1482.55 2033.81 1479.01 Q2035.64 1475.44 2035.64 1468.33 Q2035.64 1461.2 2033.81 1457.66 Q2032.01 1454.1 2028.37 1454.1 M2028.37 1450.39 Q2034.18 1450.39 2037.24 1455 Q2040.32 1459.58 2040.32 1468.33 Q2040.32 1477.06 2037.24 1481.67 Q2034.18 1486.25 2028.37 1486.25 Q2022.56 1486.25 2019.48 1481.67 Q2016.43 1477.06 2016.43 1468.33 Q2016.43 1459.58 2019.48 1455 Q2022.56 1450.39 2028.37 1450.39 Z" fill="#000000" fill-rule="evenodd" fill-opacity="1"></path><path clip-path="url(#clip550)" d="M2285.41 1466.95 Q2288.77 1467.66 2290.65 1469.93 Q2292.54 1472.2 2292.54 1475.53 Q2292.54 1480.65 2289.03 1483.45 Q2285.51 1486.25 2279.03 1486.25 Q2276.85 1486.25 2274.53 1485.81 Q2272.24 1485.39 2269.79 1484.54 L2269.79 1480.02 Q2271.73 1481.16 2274.05 1481.74 Q2276.36 1482.32 2278.89 1482.32 Q2283.28 1482.32 2285.58 1480.58 Q2287.89 1478.84 2287.89 1475.53 Q2287.89 1472.48 2285.74 1470.77 Q2283.61 1469.03 2279.79 1469.03 L2275.76 1469.03 L2275.76 1465.19 L2279.97 1465.19 Q2283.42 1465.19 2285.25 1463.82 Q2287.08 1462.43 2287.08 1459.84 Q2287.08 1457.18 2285.18 1455.77 Q2283.31 1454.33 2279.79 1454.33 Q2277.87 1454.33 2275.67 1454.75 Q2273.47 1455.16 2270.83 1456.04 L2270.83 1451.88 Q2273.49 1451.14 2275.81 1450.77 Q2278.15 1450.39 2280.21 1450.39 Q2285.53 1450.39 2288.63 1452.83 Q2291.73 1455.23 2291.73 1459.35 Q2291.73 1462.22 2290.09 1464.21 Q2288.45 1466.18 2285.41 1466.95 Z" fill="#000000" fill-rule="evenodd" fill-opacity="1"></path><path clip-path="url(#clip550)" d="M2311.41 1454.1 Q2307.8 1454.1 2305.97 1457.66 Q2304.16 1461.2 2304.16 1468.33 Q2304.16 1475.44 2305.97 1479.01 Q2307.8 1482.55 2311.41 1482.55 Q2315.04 1482.55 2316.85 1479.01 Q2318.68 1475.44 2318.68 1468.33 Q2318.68 1461.2 2316.85 1457.66 Q2315.04 1454.1 2311.41 1454.1 M2311.41 1450.39 Q2317.22 1450.39 2320.28 1455 Q2323.35 1459.58 2323.35 1468.33 Q2323.35 1477.06 2320.28 1481.67 Q2317.22 1486.25 2311.41 1486.25 Q2305.6 1486.25 2302.52 1481.67 Q2299.47 1477.06 2299.47 1468.33 Q2299.47 1459.58 2302.52 1455 Q2305.6 1450.39 2311.41 1450.39 Z" fill="#000000" fill-rule="evenodd" fill-opacity="1"></path><path clip-path="url(#clip550)" d="M2341.57 1454.1 Q2337.96 1454.1 2336.13 1457.66 Q2334.33 1461.2 2334.33 1468.33 Q2334.33 1475.44 2336.13 1479.01 Q2337.96 1482.55 2341.57 1482.55 Q2345.21 1482.55 2347.01 1479.01 Q2348.84 1475.44 2348.84 1468.33 Q2348.84 1461.2 2347.01 1457.66 Q2345.21 1454.1 2341.57 1454.1 M2341.57 1450.39 Q2347.38 1450.39 2350.44 1455 Q2353.52 1459.58 2353.52 1468.33 Q2353.52 1477.06 2350.44 1481.67 Q2347.38 1486.25 2341.57 1486.25 Q2335.76 1486.25 2332.68 1481.67 Q2329.63 1477.06 2329.63 1468.33 Q2329.63 1459.58 2332.68 1455 Q2335.76 1450.39 2341.57 1450.39 Z" fill="#000000" fill-rule="evenodd" fill-opacity="1"></path><path clip-path="url(#clip550)" d="M1245.72 1532.4 L1273.54 1532.4 L1273.54 1537.74 L1251.51 1563.37 L1273.54 1563.37 L1273.54 1568.04 L1244.92 1568.04 L1244.92 1562.7 L1266.95 1537.07 L1245.72 1537.07 L1245.72 1532.4 Z" fill="#000000" fill-rule="evenodd" fill-opacity="1"></path><path clip-path="url(#clip550)" d="M1284.42 1562.63 L1294.93 1562.63 L1294.93 1526.38 L1283.5 1528.67 L1283.5 1522.82 L1294.86 1520.52 L1301.29 1520.52 L1301.29 1562.63 L1311.8 1562.63 L1311.8 1568.04 L1284.42 1568.04 L1284.42 1562.63 Z" fill="#000000" fill-rule="evenodd" fill-opacity="1"></path><polyline clip-path="url(#clip552)" style="stroke:#000000; stroke-linecap:round; stroke-linejoin:round; stroke-width:2; stroke-opacity:0.1; fill:none" points="
  203.964,1265.07 2352.76,1265.07 
  "></polyline>
<polyline clip-path="url(#clip552)" style="stroke:#000000; stroke-linecap:round; stroke-linejoin:round; stroke-width:2; stroke-opacity:0.1; fill:none" points="
  203.964,993.253 2352.76,993.253 
  "></polyline>
<polyline clip-path="url(#clip552)" style="stroke:#000000; stroke-linecap:round; stroke-linejoin:round; stroke-width:2; stroke-opacity:0.1; fill:none" points="
  203.964,721.434 2352.76,721.434 
  "></polyline>
<polyline clip-path="url(#clip552)" style="stroke:#000000; stroke-linecap:round; stroke-linejoin:round; stroke-width:2; stroke-opacity:0.1; fill:none" points="
  203.964,449.615 2352.76,449.615 
  "></polyline>
<polyline clip-path="url(#clip552)" style="stroke:#000000; stroke-linecap:round; stroke-linejoin:round; stroke-width:2; stroke-opacity:0.1; fill:none" points="
  203.964,177.795 2352.76,177.795 
  "></polyline>
<polyline clip-path="url(#clip550)" style="stroke:#000000; stroke-linecap:round; stroke-linejoin:round; stroke-width:4; stroke-opacity:1; fill:none" points="
  203.964,1423.18 203.964,47.2441 
  "></polyline>
<polyline clip-path="url(#clip550)" style="stroke:#000000; stroke-linecap:round; stroke-linejoin:round; stroke-width:4; stroke-opacity:1; fill:none" points="
  203.964,1265.07 222.861,1265.07 
  "></polyline>
<polyline clip-path="url(#clip550)" style="stroke:#000000; stroke-linecap:round; stroke-linejoin:round; stroke-width:4; stroke-opacity:1; fill:none" points="
  203.964,993.253 222.861,993.253 
  "></polyline>
<polyline clip-path="url(#clip550)" style="stroke:#000000; stroke-linecap:round; stroke-linejoin:round; stroke-width:4; stroke-opacity:1; fill:none" points="
  203.964,721.434 222.861,721.434 
  "></polyline>
<polyline clip-path="url(#clip550)" style="stroke:#000000; stroke-linecap:round; stroke-linejoin:round; stroke-width:4; stroke-opacity:1; fill:none" points="
  203.964,449.615 222.861,449.615 
  "></polyline>
<polyline clip-path="url(#clip550)" style="stroke:#000000; stroke-linecap:round; stroke-linejoin:round; stroke-width:4; stroke-opacity:1; fill:none" points="
  203.964,177.795 222.861,177.795 
  "></polyline>
<path clip-path="url(#clip550)" d="M117.663 1278.42 L125.302 1278.42 L125.302 1252.05 L116.992 1253.72 L116.992 1249.46 L125.255 1247.79 L129.931 1247.79 L129.931 1278.42 L137.57 1278.42 L137.57 1282.35 L117.663 1282.35 L117.663 1278.42 Z" fill="#000000" fill-rule="evenodd" fill-opacity="1"></path><path clip-path="url(#clip550)" d="M147.061 1247.79 L165.417 1247.79 L165.417 1251.73 L151.343 1251.73 L151.343 1260.2 Q152.362 1259.85 153.38 1259.69 Q154.399 1259.5 155.417 1259.5 Q161.204 1259.5 164.584 1262.68 Q167.964 1265.85 167.964 1271.26 Q167.964 1276.84 164.491 1279.94 Q161.019 1283.02 154.7 1283.02 Q152.524 1283.02 150.255 1282.65 Q148.01 1282.28 145.603 1281.54 L145.603 1276.84 Q147.686 1277.98 149.908 1278.53 Q152.13 1279.09 154.607 1279.09 Q158.612 1279.09 160.95 1276.98 Q163.288 1274.88 163.288 1271.26 Q163.288 1267.65 160.95 1265.55 Q158.612 1263.44 154.607 1263.44 Q152.732 1263.44 150.857 1263.86 Q149.005 1264.27 147.061 1265.15 L147.061 1247.79 Z" fill="#000000" fill-rule="evenodd" fill-opacity="1"></path><path clip-path="url(#clip550)" d="M119.885 1006.6 L136.204 1006.6 L136.204 1010.53 L114.26 1010.53 L114.26 1006.6 Q116.922 1003.84 121.505 999.214 Q126.112 994.561 127.292 993.218 Q129.538 990.695 130.417 988.959 Q131.32 987.2 131.32 985.51 Q131.32 982.755 129.376 981.019 Q127.455 979.283 124.353 979.283 Q122.154 979.283 119.7 980.047 Q117.269 980.811 114.492 982.362 L114.492 977.64 Q117.316 976.505 119.769 975.927 Q122.223 975.348 124.26 975.348 Q129.63 975.348 132.825 978.033 Q136.019 980.718 136.019 985.209 Q136.019 987.339 135.209 989.26 Q134.422 991.158 132.316 993.751 Q131.737 994.422 128.635 997.639 Q125.533 1000.83 119.885 1006.6 Z" fill="#000000" fill-rule="evenodd" fill-opacity="1"></path><path clip-path="url(#clip550)" d="M156.019 979.052 Q152.408 979.052 150.579 982.616 Q148.774 986.158 148.774 993.288 Q148.774 1000.39 150.579 1003.96 Q152.408 1007.5 156.019 1007.5 Q159.653 1007.5 161.459 1003.96 Q163.288 1000.39 163.288 993.288 Q163.288 986.158 161.459 982.616 Q159.653 979.052 156.019 979.052 M156.019 975.348 Q161.829 975.348 164.885 979.954 Q167.964 984.538 167.964 993.288 Q167.964 1002.01 164.885 1006.62 Q161.829 1011.2 156.019 1011.2 Q150.209 1011.2 147.13 1006.62 Q144.075 1002.01 144.075 993.288 Q144.075 984.538 147.13 979.954 Q150.209 975.348 156.019 975.348 Z" fill="#000000" fill-rule="evenodd" fill-opacity="1"></path><path clip-path="url(#clip550)" d="M120.88 734.779 L137.2 734.779 L137.2 738.714 L115.256 738.714 L115.256 734.779 Q117.918 732.024 122.501 727.394 Q127.107 722.742 128.288 721.399 Q130.533 718.876 131.413 717.14 Q132.316 715.381 132.316 713.691 Q132.316 710.936 130.371 709.2 Q128.45 707.464 125.348 707.464 Q123.149 707.464 120.695 708.228 Q118.265 708.992 115.487 710.543 L115.487 705.82 Q118.311 704.686 120.765 704.107 Q123.218 703.529 125.255 703.529 Q130.626 703.529 133.82 706.214 Q137.015 708.899 137.015 713.39 Q137.015 715.519 136.204 717.441 Q135.417 719.339 133.311 721.931 Q132.732 722.603 129.63 725.82 Q126.529 729.015 120.88 734.779 Z" fill="#000000" fill-rule="evenodd" fill-opacity="1"></path><path clip-path="url(#clip550)" d="M147.061 704.154 L165.417 704.154 L165.417 708.089 L151.343 708.089 L151.343 716.561 Q152.362 716.214 153.38 716.052 Q154.399 715.867 155.417 715.867 Q161.204 715.867 164.584 719.038 Q167.964 722.209 167.964 727.626 Q167.964 733.205 164.491 736.306 Q161.019 739.385 154.7 739.385 Q152.524 739.385 150.255 739.015 Q148.01 738.644 145.603 737.904 L145.603 733.205 Q147.686 734.339 149.908 734.894 Q152.13 735.45 154.607 735.45 Q158.612 735.45 160.95 733.343 Q163.288 731.237 163.288 727.626 Q163.288 724.015 160.95 721.908 Q158.612 719.802 154.607 719.802 Q152.732 719.802 150.857 720.218 Q149.005 720.635 147.061 721.515 L147.061 704.154 Z" fill="#000000" fill-rule="evenodd" fill-opacity="1"></path><path clip-path="url(#clip550)" d="M130.024 448.26 Q133.38 448.978 135.255 451.247 Q137.154 453.515 137.154 456.848 Q137.154 461.964 133.635 464.765 Q130.117 467.566 123.635 467.566 Q121.459 467.566 119.144 467.126 Q116.853 466.709 114.399 465.853 L114.399 461.339 Q116.343 462.473 118.658 463.052 Q120.973 463.631 123.496 463.631 Q127.894 463.631 130.186 461.895 Q132.501 460.159 132.501 456.848 Q132.501 453.793 130.348 452.08 Q128.218 450.344 124.399 450.344 L120.371 450.344 L120.371 446.501 L124.584 446.501 Q128.033 446.501 129.862 445.135 Q131.691 443.747 131.691 441.154 Q131.691 438.492 129.792 437.08 Q127.917 435.645 124.399 435.645 Q122.478 435.645 120.279 436.061 Q118.08 436.478 115.441 437.358 L115.441 433.191 Q118.103 432.45 120.418 432.08 Q122.755 431.71 124.816 431.71 Q130.14 431.71 133.242 434.14 Q136.343 436.548 136.343 440.668 Q136.343 443.538 134.7 445.529 Q133.056 447.497 130.024 448.26 Z" fill="#000000" fill-rule="evenodd" fill-opacity="1"></path><path clip-path="url(#clip550)" d="M156.019 435.413 Q152.408 435.413 150.579 438.978 Q148.774 442.52 148.774 449.649 Q148.774 456.756 150.579 460.321 Q152.408 463.862 156.019 463.862 Q159.653 463.862 161.459 460.321 Q163.288 456.756 163.288 449.649 Q163.288 442.52 161.459 438.978 Q159.653 435.413 156.019 435.413 M156.019 431.71 Q161.829 431.71 164.885 436.316 Q167.964 440.899 167.964 449.649 Q167.964 458.376 164.885 462.983 Q161.829 467.566 156.019 467.566 Q150.209 467.566 147.13 462.983 Q144.075 458.376 144.075 449.649 Q144.075 440.899 147.13 436.316 Q150.209 431.71 156.019 431.71 Z" fill="#000000" fill-rule="evenodd" fill-opacity="1"></path><path clip-path="url(#clip550)" d="M131.019 176.441 Q134.376 177.159 136.251 179.427 Q138.149 181.696 138.149 185.029 Q138.149 190.145 134.63 192.946 Q131.112 195.747 124.63 195.747 Q122.455 195.747 120.14 195.307 Q117.848 194.89 115.394 194.034 L115.394 189.52 Q117.339 190.654 119.654 191.233 Q121.968 191.812 124.492 191.812 Q128.89 191.812 131.181 190.075 Q133.496 188.339 133.496 185.029 Q133.496 181.974 131.343 180.261 Q129.214 178.525 125.394 178.525 L121.367 178.525 L121.367 174.682 L125.58 174.682 Q129.029 174.682 130.857 173.316 Q132.686 171.927 132.686 169.335 Q132.686 166.673 130.788 165.261 Q128.913 163.826 125.394 163.826 Q123.473 163.826 121.274 164.242 Q119.075 164.659 116.436 165.539 L116.436 161.372 Q119.098 160.631 121.413 160.261 Q123.751 159.89 125.811 159.89 Q131.135 159.89 134.237 162.321 Q137.339 164.728 137.339 168.849 Q137.339 171.719 135.695 173.71 Q134.052 175.677 131.019 176.441 Z" fill="#000000" fill-rule="evenodd" fill-opacity="1"></path><path clip-path="url(#clip550)" d="M147.061 160.515 L165.417 160.515 L165.417 164.451 L151.343 164.451 L151.343 172.923 Q152.362 172.576 153.38 172.414 Q154.399 172.228 155.417 172.228 Q161.204 172.228 164.584 175.4 Q167.964 178.571 167.964 183.988 Q167.964 189.566 164.491 192.668 Q161.019 195.747 154.7 195.747 Q152.524 195.747 150.255 195.376 Q148.01 195.006 145.603 194.265 L145.603 189.566 Q147.686 190.7 149.908 191.256 Q152.13 191.812 154.607 191.812 Q158.612 191.812 160.95 189.705 Q163.288 187.599 163.288 183.988 Q163.288 180.376 160.95 178.27 Q158.612 176.164 154.607 176.164 Q152.732 176.164 150.857 176.58 Q149.005 176.997 147.061 177.876 L147.061 160.515 Z" fill="#000000" fill-rule="evenodd" fill-opacity="1"></path><path clip-path="url(#clip550)" d="M28.3562 767.598 L28.3562 739.779 L33.7034 739.779 L59.3254 761.805 L59.3254 739.779 L64.0042 739.779 L64.0042 768.393 L58.657 768.393 L33.035 746.368 L33.035 767.598 L28.3562 767.598 Z" fill="#000000" fill-rule="evenodd" fill-opacity="1"></path><path clip-path="url(#clip550)" d="M58.5933 724.47 L58.5933 702.031 L64.0042 702.031 L64.0042 732.204 L58.5933 732.204 Q54.8057 728.544 48.44 722.242 Q42.0425 715.908 40.1964 714.285 Q36.7271 711.197 34.34 709.988 Q31.921 708.747 29.5975 708.747 Q25.8099 708.747 23.4228 711.42 Q21.0356 714.062 21.0356 718.327 Q21.0356 721.351 22.086 724.724 Q23.1363 728.066 25.2688 731.886 L18.7758 731.886 Q17.2162 728.003 16.4205 724.629 Q15.6248 721.255 15.6248 718.454 Q15.6248 711.07 19.3169 706.678 Q23.009 702.285 29.1837 702.285 Q32.112 702.285 34.7537 703.399 Q37.3637 704.482 40.9285 707.378 Q41.8515 708.174 46.2757 712.439 Q50.668 716.704 58.5933 724.47 Z" fill="#000000" fill-rule="evenodd" fill-opacity="1"></path><circle clip-path="url(#clip552)" cx="402.054" cy="1133.82" r="14.4" fill="#0000ff" fill-rule="evenodd" fill-opacity="1" stroke="#000000" stroke-opacity="1" stroke-width="3.2"></circle>
<circle clip-path="url(#clip552)" cx="333.17" cy="1134.26" r="14.4" fill="#0000ff" fill-rule="evenodd" fill-opacity="1" stroke="#000000" stroke-opacity="1" stroke-width="3.2"></circle>
<circle clip-path="url(#clip552)" cx="323.109" cy="1369.92" r="14.4" fill="#0000ff" fill-rule="evenodd" fill-opacity="1" stroke="#000000" stroke-opacity="1" stroke-width="3.2"></circle>
<circle clip-path="url(#clip552)" cx="477.36" cy="1323.09" r="14.4" fill="#0000ff" fill-rule="evenodd" fill-opacity="1" stroke="#000000" stroke-opacity="1" stroke-width="3.2"></circle>
<circle clip-path="url(#clip552)" cx="290.199" cy="1254.89" r="14.4" fill="#0000ff" fill-rule="evenodd" fill-opacity="1" stroke="#000000" stroke-opacity="1" stroke-width="3.2"></circle>
<circle clip-path="url(#clip552)" cx="555.95" cy="1274.83" r="14.4" fill="#0000ff" fill-rule="evenodd" fill-opacity="1" stroke="#000000" stroke-opacity="1" stroke-width="3.2"></circle>
<circle clip-path="url(#clip552)" cx="562.724" cy="1309.05" r="14.4" fill="#0000ff" fill-rule="evenodd" fill-opacity="1" stroke="#000000" stroke-opacity="1" stroke-width="3.2"></circle>
<circle clip-path="url(#clip552)" cx="428.893" cy="1309.38" r="14.4" fill="#0000ff" fill-rule="evenodd" fill-opacity="1" stroke="#000000" stroke-opacity="1" stroke-width="3.2"></circle>
<circle clip-path="url(#clip552)" cx="505.082" cy="1308.88" r="14.4" fill="#0000ff" fill-rule="evenodd" fill-opacity="1" stroke="#000000" stroke-opacity="1" stroke-width="3.2"></circle>
<circle clip-path="url(#clip552)" cx="452.78" cy="1353.94" r="14.4" fill="#0000ff" fill-rule="evenodd" fill-opacity="1" stroke="#000000" stroke-opacity="1" stroke-width="3.2"></circle>
<circle clip-path="url(#clip552)" cx="326.368" cy="1258.67" r="14.4" fill="#0000ff" fill-rule="evenodd" fill-opacity="1" stroke="#000000" stroke-opacity="1" stroke-width="3.2"></circle>
<circle clip-path="url(#clip552)" cx="435.966" cy="1135.02" r="14.4" fill="#0000ff" fill-rule="evenodd" fill-opacity="1" stroke="#000000" stroke-opacity="1" stroke-width="3.2"></circle>
<circle clip-path="url(#clip552)" cx="582.616" cy="1323.09" r="14.4" fill="#0000ff" fill-rule="evenodd" fill-opacity="1" stroke="#000000" stroke-opacity="1" stroke-width="3.2"></circle>
<circle clip-path="url(#clip552)" cx="612.21" cy="1308.77" r="14.4" fill="#0000ff" fill-rule="evenodd" fill-opacity="1" stroke="#000000" stroke-opacity="1" stroke-width="3.2"></circle>
<circle clip-path="url(#clip552)" cx="527.926" cy="1259.92" r="14.4" fill="#0000ff" fill-rule="evenodd" fill-opacity="1" stroke="#000000" stroke-opacity="1" stroke-width="3.2"></circle>
<circle clip-path="url(#clip552)" cx="264.778" cy="1281.89" r="14.4" fill="#0000ff" fill-rule="evenodd" fill-opacity="1" stroke="#000000" stroke-opacity="1" stroke-width="3.2"></circle>
<circle clip-path="url(#clip552)" cx="525.098" cy="1270.04" r="14.4" fill="#0000ff" fill-rule="evenodd" fill-opacity="1" stroke="#000000" stroke-opacity="1" stroke-width="3.2"></circle>
<circle clip-path="url(#clip552)" cx="497.824" cy="1326.34" r="14.4" fill="#0000ff" fill-rule="evenodd" fill-opacity="1" stroke="#000000" stroke-opacity="1" stroke-width="3.2"></circle>
<circle clip-path="url(#clip552)" cx="576.508" cy="1260.47" r="14.4" fill="#0000ff" fill-rule="evenodd" fill-opacity="1" stroke="#000000" stroke-opacity="1" stroke-width="3.2"></circle>
<circle clip-path="url(#clip552)" cx="634.852" cy="1191.65" r="14.4" fill="#0000ff" fill-rule="evenodd" fill-opacity="1" stroke="#000000" stroke-opacity="1" stroke-width="3.2"></circle>
<circle clip-path="url(#clip552)" cx="1142.83" cy="1275.56" r="14.4" fill="#ff0000" fill-rule="evenodd" fill-opacity="1" stroke="#000000" stroke-opacity="1" stroke-width="3.2"></circle>
<circle clip-path="url(#clip552)" cx="1659.01" cy="1134.85" r="14.4" fill="#ff0000" fill-rule="evenodd" fill-opacity="1" stroke="#000000" stroke-opacity="1" stroke-width="3.2"></circle>
<circle clip-path="url(#clip552)" cx="2111.08" cy="1263.7" r="14.4" fill="#ff0000" fill-rule="evenodd" fill-opacity="1" stroke="#000000" stroke-opacity="1" stroke-width="3.2"></circle>
<circle clip-path="url(#clip552)" cx="1957" cy="1133.99" r="14.4" fill="#ff0000" fill-rule="evenodd" fill-opacity="1" stroke="#000000" stroke-opacity="1" stroke-width="3.2"></circle>
<circle clip-path="url(#clip552)" cx="1171.16" cy="1290.75" r="14.4" fill="#ff0000" fill-rule="evenodd" fill-opacity="1" stroke="#000000" stroke-opacity="1" stroke-width="3.2"></circle>
<circle clip-path="url(#clip552)" cx="1492.12" cy="1270.04" r="14.4" fill="#ff0000" fill-rule="evenodd" fill-opacity="1" stroke="#000000" stroke-opacity="1" stroke-width="3.2"></circle>
<circle clip-path="url(#clip552)" cx="2291.94" cy="1308.34" r="14.4" fill="#ff0000" fill-rule="evenodd" fill-opacity="1" stroke="#000000" stroke-opacity="1" stroke-width="3.2"></circle>
<circle clip-path="url(#clip552)" cx="1118.69" cy="1134.85" r="14.4" fill="#ff0000" fill-rule="evenodd" fill-opacity="1" stroke="#000000" stroke-opacity="1" stroke-width="3.2"></circle>
<circle clip-path="url(#clip552)" cx="1732.57" cy="1264.16" r="14.4" fill="#ff0000" fill-rule="evenodd" fill-opacity="1" stroke="#000000" stroke-opacity="1" stroke-width="3.2"></circle>
<circle clip-path="url(#clip552)" cx="2003.72" cy="640.391" r="14.4" fill="#ff0000" fill-rule="evenodd" fill-opacity="1" stroke="#000000" stroke-opacity="1" stroke-width="3.2"></circle>
<circle clip-path="url(#clip552)" cx="1251.44" cy="1133.87" r="14.4" fill="#ff0000" fill-rule="evenodd" fill-opacity="1" stroke="#000000" stroke-opacity="1" stroke-width="3.2"></circle>
<circle clip-path="url(#clip552)" cx="979.333" cy="1258.67" r="14.4" fill="#ff0000" fill-rule="evenodd" fill-opacity="1" stroke="#000000" stroke-opacity="1" stroke-width="3.2"></circle>
<circle clip-path="url(#clip552)" cx="1703.69" cy="1134.21" r="14.4" fill="#ff0000" fill-rule="evenodd" fill-opacity="1" stroke="#000000" stroke-opacity="1" stroke-width="3.2"></circle>
<circle clip-path="url(#clip552)" cx="1027.66" cy="1340.8" r="14.4" fill="#ff0000" fill-rule="evenodd" fill-opacity="1" stroke="#000000" stroke-opacity="1" stroke-width="3.2"></circle>
<circle clip-path="url(#clip552)" cx="1915.93" cy="1302.82" r="14.4" fill="#ff0000" fill-rule="evenodd" fill-opacity="1" stroke="#000000" stroke-opacity="1" stroke-width="3.2"></circle>
<circle clip-path="url(#clip552)" cx="1314.09" cy="1134.37" r="14.4" fill="#ff0000" fill-rule="evenodd" fill-opacity="1" stroke="#000000" stroke-opacity="1" stroke-width="3.2"></circle>
<circle clip-path="url(#clip552)" cx="1036.5" cy="1308.78" r="14.4" fill="#ff0000" fill-rule="evenodd" fill-opacity="1" stroke="#000000" stroke-opacity="1" stroke-width="3.2"></circle>
<circle clip-path="url(#clip552)" cx="1402.35" cy="1274.83" r="14.4" fill="#ff0000" fill-rule="evenodd" fill-opacity="1" stroke="#000000" stroke-opacity="1" stroke-width="3.2"></circle>
<circle clip-path="url(#clip552)" cx="1307.15" cy="1134.21" r="14.4" fill="#ff0000" fill-rule="evenodd" fill-opacity="1" stroke="#000000" stroke-opacity="1" stroke-width="3.2"></circle>
<circle clip-path="url(#clip552)" cx="1226.43" cy="1384.24" r="14.4" fill="#ff0000" fill-rule="evenodd" fill-opacity="1" stroke="#000000" stroke-opacity="1" stroke-width="3.2"></circle>
<circle clip-path="url(#clip552)" cx="1087.17" cy="1274.83" r="14.4" fill="#ee82ee" fill-rule="evenodd" fill-opacity="1" stroke="#000000" stroke-opacity="1" stroke-width="3.2"></circle>
<circle clip-path="url(#clip552)" cx="992.143" cy="1384.24" r="14.4" fill="#ee82ee" fill-rule="evenodd" fill-opacity="1" stroke="#000000" stroke-opacity="1" stroke-width="3.2"></circle>
<circle clip-path="url(#clip552)" cx="987.97" cy="1274.83" r="14.4" fill="#ee82ee" fill-rule="evenodd" fill-opacity="1" stroke="#000000" stroke-opacity="1" stroke-width="3.2"></circle>
<circle clip-path="url(#clip552)" cx="1224.28" cy="1134.07" r="14.4" fill="#ee82ee" fill-rule="evenodd" fill-opacity="1" stroke="#000000" stroke-opacity="1" stroke-width="3.2"></circle>
<circle clip-path="url(#clip552)" cx="994.032" cy="1340.8" r="14.4" fill="#ee82ee" fill-rule="evenodd" fill-opacity="1" stroke="#000000" stroke-opacity="1" stroke-width="3.2"></circle>
<circle clip-path="url(#clip552)" cx="954.494" cy="1260.52" r="14.4" fill="#ee82ee" fill-rule="evenodd" fill-opacity="1" stroke="#000000" stroke-opacity="1" stroke-width="3.2"></circle>
<circle clip-path="url(#clip552)" cx="1023.98" cy="1312.03" r="14.4" fill="#ee82ee" fill-rule="evenodd" fill-opacity="1" stroke="#000000" stroke-opacity="1" stroke-width="3.2"></circle>
<circle clip-path="url(#clip552)" cx="1114.96" cy="1134.85" r="14.4" fill="#ee82ee" fill-rule="evenodd" fill-opacity="1" stroke="#000000" stroke-opacity="1" stroke-width="3.2"></circle>
<circle clip-path="url(#clip552)" cx="1156.89" cy="1274.83" r="14.4" fill="#ee82ee" fill-rule="evenodd" fill-opacity="1" stroke="#000000" stroke-opacity="1" stroke-width="3.2"></circle>
<circle clip-path="url(#clip552)" cx="1073.5" cy="1134.21" r="14.4" fill="#ee82ee" fill-rule="evenodd" fill-opacity="1" stroke="#000000" stroke-opacity="1" stroke-width="3.2"></circle>
<circle clip-path="url(#clip552)" cx="793.163" cy="1308.86" r="14.4" fill="#ee82ee" fill-rule="evenodd" fill-opacity="1" stroke="#000000" stroke-opacity="1" stroke-width="3.2"></circle>
<circle clip-path="url(#clip552)" cx="796.014" cy="1308.74" r="14.4" fill="#ee82ee" fill-rule="evenodd" fill-opacity="1" stroke="#000000" stroke-opacity="1" stroke-width="3.2"></circle>
<circle clip-path="url(#clip552)" cx="1042.61" cy="1312.03" r="14.4" fill="#ee82ee" fill-rule="evenodd" fill-opacity="1" stroke="#000000" stroke-opacity="1" stroke-width="3.2"></circle>
<circle clip-path="url(#clip552)" cx="873.31" cy="1275.89" r="14.4" fill="#ee82ee" fill-rule="evenodd" fill-opacity="1" stroke="#000000" stroke-opacity="1" stroke-width="3.2"></circle>
<circle clip-path="url(#clip552)" cx="930.026" cy="1290.75" r="14.4" fill="#ee82ee" fill-rule="evenodd" fill-opacity="1" stroke="#000000" stroke-opacity="1" stroke-width="3.2"></circle>
<circle clip-path="url(#clip552)" cx="1028.9" cy="1281.89" r="14.4" fill="#ee82ee" fill-rule="evenodd" fill-opacity="1" stroke="#000000" stroke-opacity="1" stroke-width="3.2"></circle>
<circle clip-path="url(#clip552)" cx="955.313" cy="1257.75" r="14.4" fill="#ee82ee" fill-rule="evenodd" fill-opacity="1" stroke="#000000" stroke-opacity="1" stroke-width="3.2"></circle>
<circle clip-path="url(#clip552)" cx="1290.36" cy="86.1857" r="14.4" fill="#ee82ee" fill-rule="evenodd" fill-opacity="1" stroke="#000000" stroke-opacity="1" stroke-width="3.2"></circle>
<circle clip-path="url(#clip552)" cx="1052.73" cy="1308.74" r="14.4" fill="#ee82ee" fill-rule="evenodd" fill-opacity="1" stroke="#000000" stroke-opacity="1" stroke-width="3.2"></circle>
<circle clip-path="url(#clip552)" cx="850.357" cy="1135.02" r="14.4" fill="#ee82ee" fill-rule="evenodd" fill-opacity="1" stroke="#000000" stroke-opacity="1" stroke-width="3.2"></circle>
<path clip-path="url(#clip550)" d="
M1784.46 300.469 L2281.13 300.469 L2281.13 93.1086 L1784.46 93.1086  Z
  " fill="#ffffff" fill-rule="evenodd" fill-opacity="1"></path>
<polyline clip-path="url(#clip550)" style="stroke:#000000; stroke-linecap:round; stroke-linejoin:round; stroke-width:4; stroke-opacity:1; fill:none" points="
  1784.46,300.469 2281.13,300.469 2281.13,93.1086 1784.46,93.1086 1784.46,300.469 
  "></polyline>
<circle clip-path="url(#clip550)" cx="1879.96" cy="144.949" r="23.04" fill="#0000ff" fill-rule="evenodd" fill-opacity="1" stroke="#000000" stroke-opacity="1" stroke-width="5.12"></circle>
<path clip-path="url(#clip550)" d="M1975.46 126.21 L1979.72 126.21 L1979.72 162.229 L1975.46 162.229 L1975.46 126.21 Z" fill="#000000" fill-rule="evenodd" fill-opacity="1"></path><path clip-path="url(#clip550)" d="M2010.81 148.201 L2010.81 150.284 L1991.23 150.284 Q1991.5 154.682 1993.87 156.997 Q1996.25 159.289 2000.49 159.289 Q2002.94 159.289 2005.23 158.687 Q2007.55 158.085 2009.81 156.881 L2009.81 160.909 Q2007.52 161.881 2005.12 162.391 Q2002.71 162.9 2000.23 162.9 Q1994.03 162.9 1990.39 159.289 Q1986.78 155.678 1986.78 149.52 Q1986.78 143.155 1990.21 139.428 Q1993.66 135.678 1999.49 135.678 Q2004.72 135.678 2007.75 139.057 Q2010.81 142.414 2010.81 148.201 M2006.55 146.951 Q2006.5 143.456 2004.58 141.372 Q2002.69 139.289 1999.54 139.289 Q1995.97 139.289 1993.82 141.303 Q1991.69 143.317 1991.37 146.974 L2006.55 146.951 Z" fill="#000000" fill-rule="evenodd" fill-opacity="1"></path><path clip-path="url(#clip550)" d="M2029.58 149.196 Q2024.42 149.196 2022.43 150.377 Q2020.44 151.557 2020.44 154.405 Q2020.44 156.673 2021.92 158.016 Q2023.43 159.335 2026 159.335 Q2029.54 159.335 2031.67 156.835 Q2033.82 154.312 2033.82 150.145 L2033.82 149.196 L2029.58 149.196 M2038.08 147.437 L2038.08 162.229 L2033.82 162.229 L2033.82 158.293 Q2032.36 160.655 2030.19 161.789 Q2028.01 162.9 2024.86 162.9 Q2020.88 162.9 2018.52 160.678 Q2016.18 158.432 2016.18 154.682 Q2016.18 150.307 2019.1 148.085 Q2022.04 145.863 2027.85 145.863 L2033.82 145.863 L2033.82 145.446 Q2033.82 142.507 2031.88 140.909 Q2029.95 139.289 2026.46 139.289 Q2024.24 139.289 2022.13 139.821 Q2020.02 140.354 2018.08 141.419 L2018.08 137.483 Q2020.42 136.581 2022.62 136.141 Q2024.81 135.678 2026.9 135.678 Q2032.52 135.678 2035.3 138.594 Q2038.08 141.511 2038.08 147.437 Z" fill="#000000" fill-rule="evenodd" fill-opacity="1"></path><path clip-path="url(#clip550)" d="M2063.91 140.238 L2063.91 126.21 L2068.17 126.21 L2068.17 162.229 L2063.91 162.229 L2063.91 158.34 Q2062.57 160.655 2060.51 161.789 Q2058.47 162.9 2055.6 162.9 Q2050.9 162.9 2047.94 159.15 Q2045 155.4 2045 149.289 Q2045 143.178 2047.94 139.428 Q2050.9 135.678 2055.6 135.678 Q2058.47 135.678 2060.51 136.812 Q2062.57 137.923 2063.91 140.238 M2049.4 149.289 Q2049.4 153.988 2051.32 156.673 Q2053.26 159.335 2056.64 159.335 Q2060.02 159.335 2061.97 156.673 Q2063.91 153.988 2063.91 149.289 Q2063.91 144.59 2061.97 141.928 Q2060.02 139.243 2056.64 139.243 Q2053.26 139.243 2051.32 141.928 Q2049.4 144.59 2049.4 149.289 Z" fill="#000000" fill-rule="evenodd" fill-opacity="1"></path><path clip-path="url(#clip550)" d="M2102.06 139.289 Q2098.63 139.289 2096.64 141.974 Q2094.65 144.636 2094.65 149.289 Q2094.65 153.942 2096.62 156.627 Q2098.61 159.289 2102.06 159.289 Q2105.46 159.289 2107.45 156.604 Q2109.44 153.918 2109.44 149.289 Q2109.44 144.682 2107.45 141.997 Q2105.46 139.289 2102.06 139.289 M2102.06 135.678 Q2107.62 135.678 2110.79 139.289 Q2113.96 142.9 2113.96 149.289 Q2113.96 155.655 2110.79 159.289 Q2107.62 162.9 2102.06 162.9 Q2096.48 162.9 2093.31 159.289 Q2090.16 155.655 2090.16 149.289 Q2090.16 142.9 2093.31 139.289 Q2096.48 135.678 2102.06 135.678 Z" fill="#000000" fill-rule="evenodd" fill-opacity="1"></path><path clip-path="url(#clip550)" d="M2139.63 149.289 Q2139.63 144.59 2137.68 141.928 Q2135.76 139.243 2132.38 139.243 Q2129 139.243 2127.06 141.928 Q2125.14 144.59 2125.14 149.289 Q2125.14 153.988 2127.06 156.673 Q2129 159.335 2132.38 159.335 Q2135.76 159.335 2137.68 156.673 Q2139.63 153.988 2139.63 149.289 M2125.14 140.238 Q2126.48 137.923 2128.52 136.812 Q2130.58 135.678 2133.43 135.678 Q2138.15 135.678 2141.09 139.428 Q2144.05 143.178 2144.05 149.289 Q2144.05 155.4 2141.09 159.15 Q2138.15 162.9 2133.43 162.9 Q2130.58 162.9 2128.52 161.789 Q2126.48 160.655 2125.14 158.34 L2125.14 162.229 L2120.86 162.229 L2120.86 126.21 L2125.14 126.21 L2125.14 140.238 Z" fill="#000000" fill-rule="evenodd" fill-opacity="1"></path><path clip-path="url(#clip550)" d="M2151.11 136.303 L2155.37 136.303 L2155.37 162.692 Q2155.37 167.645 2153.47 169.867 Q2151.6 172.09 2147.41 172.09 L2145.79 172.09 L2145.79 168.479 L2146.92 168.479 Q2149.35 168.479 2150.23 167.344 Q2151.11 166.233 2151.11 162.692 L2151.11 136.303 M2151.11 126.21 L2155.37 126.21 L2155.37 131.604 L2151.11 131.604 L2151.11 126.21 Z" fill="#000000" fill-rule="evenodd" fill-opacity="1"></path><path clip-path="url(#clip550)" d="M2180.76 158.293 L2188.4 158.293 L2188.4 131.928 L2180.09 133.595 L2180.09 129.335 L2188.36 127.669 L2193.03 127.669 L2193.03 158.293 L2200.67 158.293 L2200.67 162.229 L2180.76 162.229 L2180.76 158.293 Z" fill="#000000" fill-rule="evenodd" fill-opacity="1"></path><circle clip-path="url(#clip550)" cx="1879.96" cy="196.789" r="23.04" fill="#ff0000" fill-rule="evenodd" fill-opacity="1" stroke="#000000" stroke-opacity="1" stroke-width="5.12"></circle>
<path clip-path="url(#clip550)" d="M1975.46 178.05 L1979.72 178.05 L1979.72 214.069 L1975.46 214.069 L1975.46 178.05 Z" fill="#000000" fill-rule="evenodd" fill-opacity="1"></path><path clip-path="url(#clip550)" d="M2010.81 200.041 L2010.81 202.124 L1991.23 202.124 Q1991.5 206.522 1993.87 208.837 Q1996.25 211.129 2000.49 211.129 Q2002.94 211.129 2005.23 210.527 Q2007.55 209.925 2009.81 208.721 L2009.81 212.749 Q2007.52 213.721 2005.12 214.231 Q2002.71 214.74 2000.23 214.74 Q1994.03 214.74 1990.39 211.129 Q1986.78 207.518 1986.78 201.36 Q1986.78 194.995 1990.21 191.268 Q1993.66 187.518 1999.49 187.518 Q2004.72 187.518 2007.75 190.897 Q2010.81 194.254 2010.81 200.041 M2006.55 198.791 Q2006.5 195.296 2004.58 193.212 Q2002.69 191.129 1999.54 191.129 Q1995.97 191.129 1993.82 193.143 Q1991.69 195.157 1991.37 198.814 L2006.55 198.791 Z" fill="#000000" fill-rule="evenodd" fill-opacity="1"></path><path clip-path="url(#clip550)" d="M2029.58 201.036 Q2024.42 201.036 2022.43 202.217 Q2020.44 203.397 2020.44 206.245 Q2020.44 208.513 2021.92 209.856 Q2023.43 211.175 2026 211.175 Q2029.54 211.175 2031.67 208.675 Q2033.82 206.152 2033.82 201.985 L2033.82 201.036 L2029.58 201.036 M2038.08 199.277 L2038.08 214.069 L2033.82 214.069 L2033.82 210.133 Q2032.36 212.495 2030.19 213.629 Q2028.01 214.74 2024.86 214.74 Q2020.88 214.74 2018.52 212.518 Q2016.18 210.272 2016.18 206.522 Q2016.18 202.147 2019.1 199.925 Q2022.04 197.703 2027.85 197.703 L2033.82 197.703 L2033.82 197.286 Q2033.82 194.347 2031.88 192.749 Q2029.95 191.129 2026.46 191.129 Q2024.24 191.129 2022.13 191.661 Q2020.02 192.194 2018.08 193.259 L2018.08 189.323 Q2020.42 188.421 2022.62 187.981 Q2024.81 187.518 2026.9 187.518 Q2032.52 187.518 2035.3 190.434 Q2038.08 193.351 2038.08 199.277 Z" fill="#000000" fill-rule="evenodd" fill-opacity="1"></path><path clip-path="url(#clip550)" d="M2063.91 192.078 L2063.91 178.05 L2068.17 178.05 L2068.17 214.069 L2063.91 214.069 L2063.91 210.18 Q2062.57 212.495 2060.51 213.629 Q2058.47 214.74 2055.6 214.74 Q2050.9 214.74 2047.94 210.99 Q2045 207.24 2045 201.129 Q2045 195.018 2047.94 191.268 Q2050.9 187.518 2055.6 187.518 Q2058.47 187.518 2060.51 188.652 Q2062.57 189.763 2063.91 192.078 M2049.4 201.129 Q2049.4 205.828 2051.32 208.513 Q2053.26 211.175 2056.64 211.175 Q2060.02 211.175 2061.97 208.513 Q2063.91 205.828 2063.91 201.129 Q2063.91 196.43 2061.97 193.768 Q2060.02 191.083 2056.64 191.083 Q2053.26 191.083 2051.32 193.768 Q2049.4 196.43 2049.4 201.129 Z" fill="#000000" fill-rule="evenodd" fill-opacity="1"></path><path clip-path="url(#clip550)" d="M2102.06 191.129 Q2098.63 191.129 2096.64 193.814 Q2094.65 196.476 2094.65 201.129 Q2094.65 205.782 2096.62 208.467 Q2098.61 211.129 2102.06 211.129 Q2105.46 211.129 2107.45 208.444 Q2109.44 205.758 2109.44 201.129 Q2109.44 196.522 2107.45 193.837 Q2105.46 191.129 2102.06 191.129 M2102.06 187.518 Q2107.62 187.518 2110.79 191.129 Q2113.96 194.74 2113.96 201.129 Q2113.96 207.495 2110.79 211.129 Q2107.62 214.74 2102.06 214.74 Q2096.48 214.74 2093.31 211.129 Q2090.16 207.495 2090.16 201.129 Q2090.16 194.74 2093.31 191.129 Q2096.48 187.518 2102.06 187.518 Z" fill="#000000" fill-rule="evenodd" fill-opacity="1"></path><path clip-path="url(#clip550)" d="M2139.63 201.129 Q2139.63 196.43 2137.68 193.768 Q2135.76 191.083 2132.38 191.083 Q2129 191.083 2127.06 193.768 Q2125.14 196.43 2125.14 201.129 Q2125.14 205.828 2127.06 208.513 Q2129 211.175 2132.38 211.175 Q2135.76 211.175 2137.68 208.513 Q2139.63 205.828 2139.63 201.129 M2125.14 192.078 Q2126.48 189.763 2128.52 188.652 Q2130.58 187.518 2133.43 187.518 Q2138.15 187.518 2141.09 191.268 Q2144.05 195.018 2144.05 201.129 Q2144.05 207.24 2141.09 210.99 Q2138.15 214.74 2133.43 214.74 Q2130.58 214.74 2128.52 213.629 Q2126.48 212.495 2125.14 210.18 L2125.14 214.069 L2120.86 214.069 L2120.86 178.05 L2125.14 178.05 L2125.14 192.078 Z" fill="#000000" fill-rule="evenodd" fill-opacity="1"></path><path clip-path="url(#clip550)" d="M2151.11 188.143 L2155.37 188.143 L2155.37 214.532 Q2155.37 219.485 2153.47 221.707 Q2151.6 223.93 2147.41 223.93 L2145.79 223.93 L2145.79 220.319 L2146.92 220.319 Q2149.35 220.319 2150.23 219.184 Q2151.11 218.073 2151.11 214.532 L2151.11 188.143 M2151.11 178.05 L2155.37 178.05 L2155.37 183.444 L2151.11 183.444 L2151.11 178.05 Z" fill="#000000" fill-rule="evenodd" fill-opacity="1"></path><path clip-path="url(#clip550)" d="M2183.98 210.133 L2200.3 210.133 L2200.3 214.069 L2178.36 214.069 L2178.36 210.133 Q2181.02 207.379 2185.6 202.749 Q2190.21 198.096 2191.39 196.754 Q2193.63 194.231 2194.51 192.495 Q2195.42 190.735 2195.42 189.046 Q2195.42 186.291 2193.47 184.555 Q2191.55 182.819 2188.45 182.819 Q2186.25 182.819 2183.8 183.583 Q2181.36 184.347 2178.59 185.897 L2178.59 181.175 Q2181.41 180.041 2183.86 179.462 Q2186.32 178.884 2188.36 178.884 Q2193.73 178.884 2196.92 181.569 Q2200.11 184.254 2200.11 188.745 Q2200.11 190.874 2199.3 192.796 Q2198.52 194.694 2196.41 197.286 Q2195.83 197.958 2192.73 201.175 Q2189.63 204.37 2183.98 210.133 Z" fill="#000000" fill-rule="evenodd" fill-opacity="1"></path><circle clip-path="url(#clip550)" cx="1879.96" cy="248.629" r="23.04" fill="#ee82ee" fill-rule="evenodd" fill-opacity="1" stroke="#000000" stroke-opacity="1" stroke-width="5.12"></circle>
<path clip-path="url(#clip550)" d="M1995.97 240.978 L1995.97 244.96 Q1994.17 243.964 1992.34 243.478 Q1990.53 242.969 1988.68 242.969 Q1984.54 242.969 1982.25 245.608 Q1979.95 248.224 1979.95 252.969 Q1979.95 257.714 1982.25 260.353 Q1984.54 262.969 1988.68 262.969 Q1990.53 262.969 1992.34 262.483 Q1994.17 261.973 1995.97 260.978 L1995.97 264.913 Q1994.19 265.747 1992.27 266.163 Q1990.37 266.58 1988.22 266.58 Q1982.36 266.58 1978.91 262.899 Q1975.46 259.219 1975.46 252.969 Q1975.46 246.626 1978.94 242.992 Q1982.43 239.358 1988.5 239.358 Q1990.46 239.358 1992.34 239.775 Q1994.21 240.168 1995.97 240.978 Z" fill="#000000" fill-rule="evenodd" fill-opacity="1"></path><path clip-path="url(#clip550)" d="M2013.43 242.969 Q2010 242.969 2008.01 245.654 Q2006.02 248.316 2006.02 252.969 Q2006.02 257.622 2007.99 260.307 Q2009.98 262.969 2013.43 262.969 Q2016.83 262.969 2018.82 260.284 Q2020.81 257.598 2020.81 252.969 Q2020.81 248.362 2018.82 245.677 Q2016.83 242.969 2013.43 242.969 M2013.43 239.358 Q2018.98 239.358 2022.15 242.969 Q2025.32 246.58 2025.32 252.969 Q2025.32 259.335 2022.15 262.969 Q2018.98 266.58 2013.43 266.58 Q2007.85 266.58 2004.68 262.969 Q2001.53 259.335 2001.53 252.969 Q2001.53 246.58 2004.68 242.969 Q2007.85 239.358 2013.43 239.358 Z" fill="#000000" fill-rule="evenodd" fill-opacity="1"></path><path clip-path="url(#clip550)" d="M2052.57 244.96 Q2054.17 242.089 2056.39 240.724 Q2058.61 239.358 2061.62 239.358 Q2065.67 239.358 2067.87 242.205 Q2070.07 245.029 2070.07 250.261 L2070.07 265.909 L2065.79 265.909 L2065.79 250.399 Q2065.79 246.673 2064.47 244.867 Q2063.15 243.062 2060.44 243.062 Q2057.13 243.062 2055.21 245.261 Q2053.29 247.46 2053.29 251.256 L2053.29 265.909 L2049 265.909 L2049 250.399 Q2049 246.649 2047.69 244.867 Q2046.37 243.062 2043.61 243.062 Q2040.35 243.062 2038.43 245.284 Q2036.5 247.483 2036.5 251.256 L2036.5 265.909 L2032.22 265.909 L2032.22 239.983 L2036.5 239.983 L2036.5 244.011 Q2037.96 241.626 2040 240.492 Q2042.04 239.358 2044.84 239.358 Q2047.66 239.358 2049.63 240.793 Q2051.62 242.228 2052.57 244.96 Z" fill="#000000" fill-rule="evenodd" fill-opacity="1"></path><path clip-path="url(#clip550)" d="M2082.68 262.02 L2082.68 275.77 L2078.4 275.77 L2078.4 239.983 L2082.68 239.983 L2082.68 243.918 Q2084.03 241.603 2086.06 240.492 Q2088.12 239.358 2090.97 239.358 Q2095.69 239.358 2098.63 243.108 Q2101.6 246.858 2101.6 252.969 Q2101.6 259.08 2098.63 262.83 Q2095.69 266.58 2090.97 266.58 Q2088.12 266.58 2086.06 265.469 Q2084.03 264.335 2082.68 262.02 M2097.18 252.969 Q2097.18 248.27 2095.23 245.608 Q2093.31 242.923 2089.93 242.923 Q2086.55 242.923 2084.61 245.608 Q2082.68 248.27 2082.68 252.969 Q2082.68 257.668 2084.61 260.353 Q2086.55 263.015 2089.93 263.015 Q2093.31 263.015 2095.23 260.353 Q2097.18 257.668 2097.18 252.969 Z" fill="#000000" fill-rule="evenodd" fill-opacity="1"></path><path clip-path="url(#clip550)" d="M2123.68 243.964 Q2122.96 243.548 2122.11 243.362 Q2121.27 243.154 2120.25 243.154 Q2116.64 243.154 2114.7 245.515 Q2112.78 247.853 2112.78 252.251 L2112.78 265.909 L2108.49 265.909 L2108.49 239.983 L2112.78 239.983 L2112.78 244.011 Q2114.12 241.649 2116.27 240.515 Q2118.43 239.358 2121.5 239.358 Q2121.94 239.358 2122.48 239.427 Q2123.01 239.474 2123.66 239.589 L2123.68 243.964 Z" fill="#000000" fill-rule="evenodd" fill-opacity="1"></path><path clip-path="url(#clip550)" d="M2137.15 242.969 Q2133.73 242.969 2131.74 245.654 Q2129.74 248.316 2129.74 252.969 Q2129.74 257.622 2131.71 260.307 Q2133.7 262.969 2137.15 262.969 Q2140.55 262.969 2142.55 260.284 Q2144.54 257.598 2144.54 252.969 Q2144.54 248.362 2142.55 245.677 Q2140.55 242.969 2137.15 242.969 M2137.15 239.358 Q2142.71 239.358 2145.88 242.969 Q2149.05 246.58 2149.05 252.969 Q2149.05 259.335 2145.88 262.969 Q2142.71 266.58 2137.15 266.58 Q2131.57 266.58 2128.4 262.969 Q2125.25 259.335 2125.25 252.969 Q2125.25 246.58 2128.4 242.969 Q2131.57 239.358 2137.15 239.358 Z" fill="#000000" fill-rule="evenodd" fill-opacity="1"></path><path clip-path="url(#clip550)" d="M2176.3 244.96 Q2177.89 242.089 2180.11 240.724 Q2182.34 239.358 2185.35 239.358 Q2189.4 239.358 2191.6 242.205 Q2193.8 245.029 2193.8 250.261 L2193.8 265.909 L2189.51 265.909 L2189.51 250.399 Q2189.51 246.673 2188.19 244.867 Q2186.87 243.062 2184.17 243.062 Q2180.86 243.062 2178.93 245.261 Q2177.01 247.46 2177.01 251.256 L2177.01 265.909 L2172.73 265.909 L2172.73 250.399 Q2172.73 246.649 2171.41 244.867 Q2170.09 243.062 2167.34 243.062 Q2164.07 243.062 2162.15 245.284 Q2160.23 247.483 2160.23 251.256 L2160.23 265.909 L2155.95 265.909 L2155.95 239.983 L2160.23 239.983 L2160.23 244.011 Q2161.69 241.626 2163.73 240.492 Q2165.76 239.358 2168.56 239.358 Q2171.39 239.358 2173.36 240.793 Q2175.35 242.228 2176.3 244.96 Z" fill="#000000" fill-rule="evenodd" fill-opacity="1"></path><path clip-path="url(#clip550)" d="M2202.29 239.983 L2206.55 239.983 L2206.55 265.909 L2202.29 265.909 L2202.29 239.983 M2202.29 229.89 L2206.55 229.89 L2206.55 235.284 L2202.29 235.284 L2202.29 229.89 Z" fill="#000000" fill-rule="evenodd" fill-opacity="1"></path><path clip-path="url(#clip550)" d="M2231.99 240.747 L2231.99 244.774 Q2230.18 243.849 2228.24 243.386 Q2226.3 242.923 2224.21 242.923 Q2221.04 242.923 2219.44 243.895 Q2217.87 244.867 2217.87 246.811 Q2217.87 248.293 2219 249.149 Q2220.14 249.983 2223.56 250.747 L2225.02 251.071 Q2229.56 252.043 2231.46 253.825 Q2233.38 255.585 2233.38 258.756 Q2233.38 262.367 2230.51 264.473 Q2227.66 266.58 2222.66 266.58 Q2220.58 266.58 2218.31 266.163 Q2216.06 265.77 2213.56 264.96 L2213.56 260.561 Q2215.92 261.788 2218.22 262.413 Q2220.51 263.015 2222.75 263.015 Q2225.76 263.015 2227.38 261.997 Q2229 260.955 2229 259.08 Q2229 257.344 2227.82 256.418 Q2226.67 255.492 2222.71 254.636 L2221.23 254.288 Q2217.27 253.455 2215.51 251.742 Q2213.75 250.006 2213.75 246.997 Q2213.75 243.339 2216.34 241.349 Q2218.93 239.358 2223.7 239.358 Q2226.06 239.358 2228.15 239.705 Q2230.23 240.052 2231.99 240.747 Z" fill="#000000" fill-rule="evenodd" fill-opacity="1"></path></svg>