<svg xmlns="http://www.w3.org/2000/svg" xmlns:xlink="http://www.w3.org/1999/xlink" width="600" height="400" viewBox="0 0 2400 1600">
<defs>
  <clipPath id="clip510">
    <rect x="0" y="0" width="2400" height="1600"></rect>
  </clipPath>
</defs>
<path clip-path="url(#clip510)" d="
M0 1600 L2400 1600 L2400 0 L0 0  Z
  " fill="#ffffff" fill-rule="evenodd" fill-opacity="1"></path>
<defs>
  <clipPath id="clip511">
    <rect x="480" y="0" width="1681" height="1600"></rect>
  </clipPath>
</defs>
<path clip-path="url(#clip510)" d="
M203.964 1423.18 L2352.76 1423.18 L2352.76 47.2441 L203.964 47.2441  Z
  " fill="#ffffff" fill-rule="evenodd" fill-opacity="1"></path>
<defs>
  <clipPath id="clip512">
    <rect x="203" y="47" width="2150" height="1377"></rect>
  </clipPath>
</defs>
<polyline clip-path="url(#clip512)" style="stroke:#000000; stroke-linecap:round; stroke-linejoin:round; stroke-width:2; stroke-opacity:0.1; fill:none" points="
  309.357,1423.18 309.357,47.2441 
  "></polyline>
<polyline clip-path="url(#clip512)" style="stroke:#000000; stroke-linecap:round; stroke-linejoin:round; stroke-width:2; stroke-opacity:0.1; fill:none" points="
  735.731,1423.18 735.731,47.2441 
  "></polyline>
<polyline clip-path="url(#clip512)" style="stroke:#000000; stroke-linecap:round; stroke-linejoin:round; stroke-width:2; stroke-opacity:0.1; fill:none" points="
  1162.1,1423.18 1162.1,47.2441 
  "></polyline>
<polyline clip-path="url(#clip512)" style="stroke:#000000; stroke-linecap:round; stroke-linejoin:round; stroke-width:2; stroke-opacity:0.1; fill:none" points="
  1588.48,1423.18 1588.48,47.2441 
  "></polyline>
<polyline clip-path="url(#clip512)" style="stroke:#000000; stroke-linecap:round; stroke-linejoin:round; stroke-width:2; stroke-opacity:0.1; fill:none" points="
  2014.85,1423.18 2014.85,47.2441 
  "></polyline>
<polyline clip-path="url(#clip510)" style="stroke:#000000; stroke-linecap:round; stroke-linejoin:round; stroke-width:4; stroke-opacity:1; fill:none" points="
  203.964,1423.18 2352.76,1423.18 
  "></polyline>
<polyline clip-path="url(#clip510)" style="stroke:#000000; stroke-linecap:round; stroke-linejoin:round; stroke-width:4; stroke-opacity:1; fill:none" points="
  309.357,1423.18 309.357,1404.28 
  "></polyline>
<polyline clip-path="url(#clip510)" style="stroke:#000000; stroke-linecap:round; stroke-linejoin:round; stroke-width:4; stroke-opacity:1; fill:none" points="
  735.731,1423.18 735.731,1404.28 
  "></polyline>
<polyline clip-path="url(#clip510)" style="stroke:#000000; stroke-linecap:round; stroke-linejoin:round; stroke-width:4; stroke-opacity:1; fill:none" points="
  1162.1,1423.18 1162.1,1404.28 
  "></polyline>
<polyline clip-path="url(#clip510)" style="stroke:#000000; stroke-linecap:round; stroke-linejoin:round; stroke-width:4; stroke-opacity:1; fill:none" points="
  1588.48,1423.18 1588.48,1404.28 
  "></polyline>
<polyline clip-path="url(#clip510)" style="stroke:#000000; stroke-linecap:round; stroke-linejoin:round; stroke-width:4; stroke-opacity:1; fill:none" points="
  2014.85,1423.18 2014.85,1404.28 
  "></polyline>
<path clip-path="url(#clip510)" d="M279.149 1469.17 Q275.816 1469.17 273.894 1470.95 Q271.996 1472.73 271.996 1475.86 Q271.996 1478.98 273.894 1480.77 Q275.816 1482.55 279.149 1482.55 Q282.482 1482.55 284.404 1480.77 Q286.325 1478.96 286.325 1475.86 Q286.325 1472.73 284.404 1470.95 Q282.505 1469.17 279.149 1469.17 M274.473 1467.18 Q271.464 1466.44 269.774 1464.38 Q268.107 1462.32 268.107 1459.35 Q268.107 1455.21 271.047 1452.8 Q274.01 1450.39 279.149 1450.39 Q284.311 1450.39 287.251 1452.8 Q290.191 1455.21 290.191 1459.35 Q290.191 1462.32 288.501 1464.38 Q286.834 1466.44 283.848 1467.18 Q287.228 1467.96 289.103 1470.26 Q291.001 1472.55 291.001 1475.86 Q291.001 1480.88 287.922 1483.57 Q284.867 1486.25 279.149 1486.25 Q273.431 1486.25 270.353 1483.57 Q267.297 1480.88 267.297 1475.86 Q267.297 1472.55 269.195 1470.26 Q271.093 1467.96 274.473 1467.18 M272.76 1459.79 Q272.76 1462.48 274.427 1463.98 Q276.117 1465.49 279.149 1465.49 Q282.158 1465.49 283.848 1463.98 Q285.561 1462.48 285.561 1459.79 Q285.561 1457.11 283.848 1455.6 Q282.158 1454.1 279.149 1454.1 Q276.117 1454.1 274.427 1455.6 Q272.76 1457.11 272.76 1459.79 Z" fill="#000000" fill-rule="evenodd" fill-opacity="1"></path><path clip-path="url(#clip510)" d="M309.311 1454.1 Q305.7 1454.1 303.871 1457.66 Q302.066 1461.2 302.066 1468.33 Q302.066 1475.44 303.871 1479.01 Q305.7 1482.55 309.311 1482.55 Q312.945 1482.55 314.751 1479.01 Q316.579 1475.44 316.579 1468.33 Q316.579 1461.2 314.751 1457.66 Q312.945 1454.1 309.311 1454.1 M309.311 1450.39 Q315.121 1450.39 318.177 1455 Q321.255 1459.58 321.255 1468.33 Q321.255 1477.06 318.177 1481.67 Q315.121 1486.25 309.311 1486.25 Q303.501 1486.25 300.422 1481.67 Q297.367 1477.06 297.367 1468.33 Q297.367 1459.58 300.422 1455 Q303.501 1450.39 309.311 1450.39 Z" fill="#000000" fill-rule="evenodd" fill-opacity="1"></path><path clip-path="url(#clip510)" d="M339.473 1454.1 Q335.862 1454.1 334.033 1457.66 Q332.227 1461.2 332.227 1468.33 Q332.227 1475.44 334.033 1479.01 Q335.862 1482.55 339.473 1482.55 Q343.107 1482.55 344.913 1479.01 Q346.741 1475.44 346.741 1468.33 Q346.741 1461.2 344.913 1457.66 Q343.107 1454.1 339.473 1454.1 M339.473 1450.39 Q345.283 1450.39 348.338 1455 Q351.417 1459.58 351.417 1468.33 Q351.417 1477.06 348.338 1481.67 Q345.283 1486.25 339.473 1486.25 Q333.663 1486.25 330.584 1481.67 Q327.528 1477.06 327.528 1468.33 Q327.528 1459.58 330.584 1455 Q333.663 1450.39 339.473 1450.39 Z" fill="#000000" fill-rule="evenodd" fill-opacity="1"></path><path clip-path="url(#clip510)" d="M680.257 1481.64 L687.895 1481.64 L687.895 1455.28 L679.585 1456.95 L679.585 1452.69 L687.849 1451.02 L692.525 1451.02 L692.525 1481.64 L700.164 1481.64 L700.164 1485.58 L680.257 1485.58 L680.257 1481.64 Z" fill="#000000" fill-rule="evenodd" fill-opacity="1"></path><path clip-path="url(#clip510)" d="M719.608 1454.1 Q715.997 1454.1 714.168 1457.66 Q712.363 1461.2 712.363 1468.33 Q712.363 1475.44 714.168 1479.01 Q715.997 1482.55 719.608 1482.55 Q723.242 1482.55 725.048 1479.01 Q726.877 1475.44 726.877 1468.33 Q726.877 1461.2 725.048 1457.66 Q723.242 1454.1 719.608 1454.1 M719.608 1450.39 Q725.418 1450.39 728.474 1455 Q731.553 1459.58 731.553 1468.33 Q731.553 1477.06 728.474 1481.67 Q725.418 1486.25 719.608 1486.25 Q713.798 1486.25 710.719 1481.67 Q707.664 1477.06 707.664 1468.33 Q707.664 1459.58 710.719 1455 Q713.798 1450.39 719.608 1450.39 Z" fill="#000000" fill-rule="evenodd" fill-opacity="1"></path><path clip-path="url(#clip510)" d="M749.77 1454.1 Q746.159 1454.1 744.33 1457.66 Q742.525 1461.2 742.525 1468.33 Q742.525 1475.44 744.33 1479.01 Q746.159 1482.55 749.77 1482.55 Q753.404 1482.55 755.21 1479.01 Q757.039 1475.44 757.039 1468.33 Q757.039 1461.2 755.21 1457.66 Q753.404 1454.1 749.77 1454.1 M749.77 1450.39 Q755.58 1450.39 758.636 1455 Q761.714 1459.58 761.714 1468.33 Q761.714 1477.06 758.636 1481.67 Q755.58 1486.25 749.77 1486.25 Q743.96 1486.25 740.881 1481.67 Q737.826 1477.06 737.826 1468.33 Q737.826 1459.58 740.881 1455 Q743.96 1450.39 749.77 1450.39 Z" fill="#000000" fill-rule="evenodd" fill-opacity="1"></path><path clip-path="url(#clip510)" d="M779.932 1454.1 Q776.321 1454.1 774.492 1457.66 Q772.687 1461.2 772.687 1468.33 Q772.687 1475.44 774.492 1479.01 Q776.321 1482.55 779.932 1482.55 Q783.566 1482.55 785.372 1479.01 Q787.2 1475.44 787.2 1468.33 Q787.2 1461.2 785.372 1457.66 Q783.566 1454.1 779.932 1454.1 M779.932 1450.39 Q785.742 1450.39 788.798 1455 Q791.876 1459.58 791.876 1468.33 Q791.876 1477.06 788.798 1481.67 Q785.742 1486.25 779.932 1486.25 Q774.122 1486.25 771.043 1481.67 Q767.988 1477.06 767.988 1468.33 Q767.988 1459.58 771.043 1455 Q774.122 1450.39 779.932 1450.39 Z" fill="#000000" fill-rule="evenodd" fill-opacity="1"></path><path clip-path="url(#clip510)" d="M1106.63 1481.64 L1114.27 1481.64 L1114.27 1455.28 L1105.96 1456.95 L1105.96 1452.69 L1114.22 1451.02 L1118.9 1451.02 L1118.9 1481.64 L1126.54 1481.64 L1126.54 1485.58 L1106.63 1485.58 L1106.63 1481.64 Z" fill="#000000" fill-rule="evenodd" fill-opacity="1"></path><path clip-path="url(#clip510)" d="M1140.01 1481.64 L1156.33 1481.64 L1156.33 1485.58 L1134.38 1485.58 L1134.38 1481.64 Q1137.05 1478.89 1141.63 1474.26 Q1146.24 1469.61 1147.42 1468.27 Q1149.66 1465.74 1150.54 1464.01 Q1151.44 1462.25 1151.44 1460.56 Q1151.44 1457.8 1149.5 1456.07 Q1147.58 1454.33 1144.48 1454.33 Q1142.28 1454.33 1139.82 1455.09 Q1137.39 1455.86 1134.62 1457.41 L1134.62 1452.69 Q1137.44 1451.55 1139.89 1450.97 Q1142.35 1450.39 1144.38 1450.39 Q1149.76 1450.39 1152.95 1453.08 Q1156.14 1455.77 1156.14 1460.26 Q1156.14 1462.39 1155.33 1464.31 Q1154.55 1466.2 1152.44 1468.8 Q1151.86 1469.47 1148.76 1472.69 Q1145.66 1475.88 1140.01 1481.64 Z" fill="#000000" fill-rule="evenodd" fill-opacity="1"></path><path clip-path="url(#clip510)" d="M1176.14 1454.1 Q1172.53 1454.1 1170.7 1457.66 Q1168.9 1461.2 1168.9 1468.33 Q1168.9 1475.44 1170.7 1479.01 Q1172.53 1482.55 1176.14 1482.55 Q1179.78 1482.55 1181.58 1479.01 Q1183.41 1475.44 1183.41 1468.33 Q1183.41 1461.2 1181.58 1457.66 Q1179.78 1454.1 1176.14 1454.1 M1176.14 1450.39 Q1181.95 1450.39 1185.01 1455 Q1188.09 1459.58 1188.09 1468.33 Q1188.09 1477.06 1185.01 1481.67 Q1181.95 1486.25 1176.14 1486.25 Q1170.33 1486.25 1167.25 1481.67 Q1164.2 1477.06 1164.2 1468.33 Q1164.2 1459.58 1167.25 1455 Q1170.33 1450.39 1176.14 1450.39 Z" fill="#000000" fill-rule="evenodd" fill-opacity="1"></path><path clip-path="url(#clip510)" d="M1206.31 1454.1 Q1202.69 1454.1 1200.87 1457.66 Q1199.06 1461.2 1199.06 1468.33 Q1199.06 1475.44 1200.87 1479.01 Q1202.69 1482.55 1206.31 1482.55 Q1209.94 1482.55 1211.75 1479.01 Q1213.57 1475.44 1213.57 1468.33 Q1213.57 1461.2 1211.75 1457.66 Q1209.94 1454.1 1206.31 1454.1 M1206.31 1450.39 Q1212.12 1450.39 1215.17 1455 Q1218.25 1459.58 1218.25 1468.33 Q1218.25 1477.06 1215.17 1481.67 Q1212.12 1486.25 1206.31 1486.25 Q1200.5 1486.25 1197.42 1481.67 Q1194.36 1477.06 1194.36 1468.33 Q1194.36 1459.58 1197.42 1455 Q1200.5 1450.39 1206.31 1450.39 Z" fill="#000000" fill-rule="evenodd" fill-opacity="1"></path><path clip-path="url(#clip510)" d="M1533 1481.64 L1540.64 1481.64 L1540.64 1455.28 L1532.33 1456.95 L1532.33 1452.69 L1540.6 1451.02 L1545.27 1451.02 L1545.27 1481.64 L1552.91 1481.64 L1552.91 1485.58 L1533 1485.58 L1533 1481.64 Z" fill="#000000" fill-rule="evenodd" fill-opacity="1"></path><path clip-path="url(#clip510)" d="M1575.2 1455.09 L1563.4 1473.54 L1575.2 1473.54 L1575.2 1455.09 M1573.98 1451.02 L1579.86 1451.02 L1579.86 1473.54 L1584.79 1473.54 L1584.79 1477.43 L1579.86 1477.43 L1579.86 1485.58 L1575.2 1485.58 L1575.2 1477.43 L1559.6 1477.43 L1559.6 1472.92 L1573.98 1451.02 Z" fill="#000000" fill-rule="evenodd" fill-opacity="1"></path><path clip-path="url(#clip510)" d="M1602.52 1454.1 Q1598.91 1454.1 1597.08 1457.66 Q1595.27 1461.2 1595.27 1468.33 Q1595.27 1475.44 1597.08 1479.01 Q1598.91 1482.55 1602.52 1482.55 Q1606.15 1482.55 1607.96 1479.01 Q1609.79 1475.44 1609.79 1468.33 Q1609.79 1461.2 1607.96 1457.66 Q1606.15 1454.1 1602.52 1454.1 M1602.52 1450.39 Q1608.33 1450.39 1611.38 1455 Q1614.46 1459.58 1614.46 1468.33 Q1614.46 1477.06 1611.38 1481.67 Q1608.33 1486.25 1602.52 1486.25 Q1596.71 1486.25 1593.63 1481.67 Q1590.57 1477.06 1590.57 1468.33 Q1590.57 1459.58 1593.63 1455 Q1596.71 1450.39 1602.52 1450.39 Z" fill="#000000" fill-rule="evenodd" fill-opacity="1"></path><path clip-path="url(#clip510)" d="M1632.68 1454.1 Q1629.07 1454.1 1627.24 1457.66 Q1625.43 1461.2 1625.43 1468.33 Q1625.43 1475.44 1627.24 1479.01 Q1629.07 1482.55 1632.68 1482.55 Q1636.31 1482.55 1638.12 1479.01 Q1639.95 1475.44 1639.95 1468.33 Q1639.95 1461.2 1638.12 1457.66 Q1636.31 1454.1 1632.68 1454.1 M1632.68 1450.39 Q1638.49 1450.39 1641.54 1455 Q1644.62 1459.58 1644.62 1468.33 Q1644.62 1477.06 1641.54 1481.67 Q1638.49 1486.25 1632.68 1486.25 Q1626.87 1486.25 1623.79 1481.67 Q1620.73 1477.06 1620.73 1468.33 Q1620.73 1459.58 1623.79 1455 Q1626.87 1450.39 1632.68 1450.39 Z" fill="#000000" fill-rule="evenodd" fill-opacity="1"></path><path clip-path="url(#clip510)" d="M1959.38 1481.64 L1967.02 1481.64 L1967.02 1455.28 L1958.71 1456.95 L1958.71 1452.69 L1966.97 1451.02 L1971.65 1451.02 L1971.65 1481.64 L1979.28 1481.64 L1979.28 1485.58 L1959.38 1485.58 L1959.38 1481.64 Z" fill="#000000" fill-rule="evenodd" fill-opacity="1"></path><path clip-path="url(#clip510)" d="M1999.31 1466.44 Q1996.16 1466.44 1994.31 1468.59 Q1992.48 1470.74 1992.48 1474.49 Q1992.48 1478.22 1994.31 1480.39 Q1996.16 1482.55 1999.31 1482.55 Q2002.46 1482.55 2004.28 1480.39 Q2006.14 1478.22 2006.14 1474.49 Q2006.14 1470.74 2004.28 1468.59 Q2002.46 1466.44 1999.31 1466.44 M2008.59 1451.78 L2008.59 1456.04 Q2006.83 1455.21 2005.03 1454.77 Q2003.24 1454.33 2001.48 1454.33 Q1996.85 1454.33 1994.4 1457.45 Q1991.97 1460.58 1991.62 1466.9 Q1992.99 1464.89 1995.05 1463.82 Q1997.11 1462.73 1999.59 1462.73 Q2004.79 1462.73 2007.8 1465.9 Q2010.84 1469.05 2010.84 1474.49 Q2010.84 1479.82 2007.69 1483.03 Q2004.54 1486.25 1999.31 1486.25 Q1993.31 1486.25 1990.14 1481.67 Q1986.97 1477.06 1986.97 1468.33 Q1986.97 1460.14 1990.86 1455.28 Q1994.75 1450.39 2001.3 1450.39 Q2003.06 1450.39 2004.84 1450.74 Q2006.65 1451.09 2008.59 1451.78 Z" fill="#000000" fill-rule="evenodd" fill-opacity="1"></path><path clip-path="url(#clip510)" d="M2028.89 1454.1 Q2025.28 1454.1 2023.45 1457.66 Q2021.65 1461.2 2021.65 1468.33 Q2021.65 1475.44 2023.45 1479.01 Q2025.28 1482.55 2028.89 1482.55 Q2032.53 1482.55 2034.33 1479.01 Q2036.16 1475.44 2036.16 1468.33 Q2036.16 1461.2 2034.33 1457.66 Q2032.53 1454.1 2028.89 1454.1 M2028.89 1450.39 Q2034.7 1450.39 2037.76 1455 Q2040.84 1459.58 2040.84 1468.33 Q2040.84 1477.06 2037.76 1481.67 Q2034.7 1486.25 2028.89 1486.25 Q2023.08 1486.25 2020 1481.67 Q2016.95 1477.06 2016.95 1468.33 Q2016.95 1459.58 2020 1455 Q2023.08 1450.39 2028.89 1450.39 Z" fill="#000000" fill-rule="evenodd" fill-opacity="1"></path><path clip-path="url(#clip510)" d="M2059.05 1454.1 Q2055.44 1454.1 2053.61 1457.66 Q2051.81 1461.2 2051.81 1468.33 Q2051.81 1475.44 2053.61 1479.01 Q2055.44 1482.55 2059.05 1482.55 Q2062.69 1482.55 2064.49 1479.01 Q2066.32 1475.44 2066.32 1468.33 Q2066.32 1461.2 2064.49 1457.66 Q2062.69 1454.1 2059.05 1454.1 M2059.05 1450.39 Q2064.86 1450.39 2067.92 1455 Q2071 1459.58 2071 1468.33 Q2071 1477.06 2067.92 1481.67 Q2064.86 1486.25 2059.05 1486.25 Q2053.24 1486.25 2050.16 1481.67 Q2047.11 1477.06 2047.11 1468.33 Q2047.11 1459.58 2050.16 1455 Q2053.24 1450.39 2059.05 1450.39 Z" fill="#000000" fill-rule="evenodd" fill-opacity="1"></path><path clip-path="url(#clip510)" d="M1245.72 1532.4 L1273.54 1532.4 L1273.54 1537.74 L1251.51 1563.37 L1273.54 1563.37 L1273.54 1568.04 L1244.92 1568.04 L1244.92 1562.7 L1266.95 1537.07 L1245.72 1537.07 L1245.72 1532.4 Z" fill="#000000" fill-rule="evenodd" fill-opacity="1"></path><path clip-path="url(#clip510)" d="M1284.42 1562.63 L1294.93 1562.63 L1294.93 1526.38 L1283.5 1528.67 L1283.5 1522.82 L1294.86 1520.52 L1301.29 1520.52 L1301.29 1562.63 L1311.8 1562.63 L1311.8 1568.04 L1284.42 1568.04 L1284.42 1562.63 Z" fill="#000000" fill-rule="evenodd" fill-opacity="1"></path><polyline clip-path="url(#clip512)" style="stroke:#000000; stroke-linecap:round; stroke-linejoin:round; stroke-width:2; stroke-opacity:0.1; fill:none" points="
  203.964,1340.65 2352.76,1340.65 
  "></polyline>
<polyline clip-path="url(#clip512)" style="stroke:#000000; stroke-linecap:round; stroke-linejoin:round; stroke-width:2; stroke-opacity:0.1; fill:none" points="
  203.964,1105.6 2352.76,1105.6 
  "></polyline>
<polyline clip-path="url(#clip512)" style="stroke:#000000; stroke-linecap:round; stroke-linejoin:round; stroke-width:2; stroke-opacity:0.1; fill:none" points="
  203.964,870.549 2352.76,870.549 
  "></polyline>
<polyline clip-path="url(#clip512)" style="stroke:#000000; stroke-linecap:round; stroke-linejoin:round; stroke-width:2; stroke-opacity:0.1; fill:none" points="
  203.964,635.5 2352.76,635.5 
  "></polyline>
<polyline clip-path="url(#clip512)" style="stroke:#000000; stroke-linecap:round; stroke-linejoin:round; stroke-width:2; stroke-opacity:0.1; fill:none" points="
  203.964,400.452 2352.76,400.452 
  "></polyline>
<polyline clip-path="url(#clip512)" style="stroke:#000000; stroke-linecap:round; stroke-linejoin:round; stroke-width:2; stroke-opacity:0.1; fill:none" points="
  203.964,165.403 2352.76,165.403 
  "></polyline>
<polyline clip-path="url(#clip510)" style="stroke:#000000; stroke-linecap:round; stroke-linejoin:round; stroke-width:4; stroke-opacity:1; fill:none" points="
  203.964,1423.18 203.964,47.2441 
  "></polyline>
<polyline clip-path="url(#clip510)" style="stroke:#000000; stroke-linecap:round; stroke-linejoin:round; stroke-width:4; stroke-opacity:1; fill:none" points="
  203.964,1340.65 222.861,1340.65 
  "></polyline>
<polyline clip-path="url(#clip510)" style="stroke:#000000; stroke-linecap:round; stroke-linejoin:round; stroke-width:4; stroke-opacity:1; fill:none" points="
  203.964,1105.6 222.861,1105.6 
  "></polyline>
<polyline clip-path="url(#clip510)" style="stroke:#000000; stroke-linecap:round; stroke-linejoin:round; stroke-width:4; stroke-opacity:1; fill:none" points="
  203.964,870.549 222.861,870.549 
  "></polyline>
<polyline clip-path="url(#clip510)" style="stroke:#000000; stroke-linecap:round; stroke-linejoin:round; stroke-width:4; stroke-opacity:1; fill:none" points="
  203.964,635.5 222.861,635.5 
  "></polyline>
<polyline clip-path="url(#clip510)" style="stroke:#000000; stroke-linecap:round; stroke-linejoin:round; stroke-width:4; stroke-opacity:1; fill:none" points="
  203.964,400.452 222.861,400.452 
  "></polyline>
<polyline clip-path="url(#clip510)" style="stroke:#000000; stroke-linecap:round; stroke-linejoin:round; stroke-width:4; stroke-opacity:1; fill:none" points="
  203.964,165.403 222.861,165.403 
  "></polyline>
<path clip-path="url(#clip510)" d="M116.668 1353.99 L124.306 1353.99 L124.306 1327.63 L115.996 1329.29 L115.996 1325.03 L124.26 1323.37 L128.936 1323.37 L128.936 1353.99 L136.575 1353.99 L136.575 1357.93 L116.668 1357.93 L116.668 1353.99 Z" fill="#000000" fill-rule="evenodd" fill-opacity="1"></path><path clip-path="url(#clip510)" d="M156.019 1326.45 Q152.408 1326.45 150.579 1330.01 Q148.774 1333.55 148.774 1340.68 Q148.774 1347.79 150.579 1351.35 Q152.408 1354.89 156.019 1354.89 Q159.653 1354.89 161.459 1351.35 Q163.288 1347.79 163.288 1340.68 Q163.288 1333.55 161.459 1330.01 Q159.653 1326.45 156.019 1326.45 M156.019 1322.74 Q161.829 1322.74 164.885 1327.35 Q167.964 1331.93 167.964 1340.68 Q167.964 1349.41 164.885 1354.01 Q161.829 1358.6 156.019 1358.6 Q150.209 1358.6 147.13 1354.01 Q144.075 1349.41 144.075 1340.68 Q144.075 1331.93 147.13 1327.35 Q150.209 1322.74 156.019 1322.74 Z" fill="#000000" fill-rule="evenodd" fill-opacity="1"></path><path clip-path="url(#clip510)" d="M117.663 1118.94 L125.302 1118.94 L125.302 1092.58 L116.992 1094.24 L116.992 1089.98 L125.255 1088.32 L129.931 1088.32 L129.931 1118.94 L137.57 1118.94 L137.57 1122.88 L117.663 1122.88 L117.663 1118.94 Z" fill="#000000" fill-rule="evenodd" fill-opacity="1"></path><path clip-path="url(#clip510)" d="M147.061 1088.32 L165.417 1088.32 L165.417 1092.25 L151.343 1092.25 L151.343 1100.73 Q152.362 1100.38 153.38 1100.22 Q154.399 1100.03 155.417 1100.03 Q161.204 1100.03 164.584 1103.2 Q167.964 1106.37 167.964 1111.79 Q167.964 1117.37 164.491 1120.47 Q161.019 1123.55 154.7 1123.55 Q152.524 1123.55 150.255 1123.18 Q148.01 1122.81 145.603 1122.07 L145.603 1117.37 Q147.686 1118.5 149.908 1119.06 Q152.13 1119.61 154.607 1119.61 Q158.612 1119.61 160.95 1117.51 Q163.288 1115.4 163.288 1111.79 Q163.288 1108.18 160.95 1106.07 Q158.612 1103.97 154.607 1103.97 Q152.732 1103.97 150.857 1104.38 Q149.005 1104.8 147.061 1105.68 L147.061 1088.32 Z" fill="#000000" fill-rule="evenodd" fill-opacity="1"></path><path clip-path="url(#clip510)" d="M119.885 883.894 L136.204 883.894 L136.204 887.829 L114.26 887.829 L114.26 883.894 Q116.922 881.139 121.505 876.51 Q126.112 871.857 127.292 870.514 Q129.538 867.991 130.417 866.255 Q131.32 864.496 131.32 862.806 Q131.32 860.051 129.376 858.315 Q127.455 856.579 124.353 856.579 Q122.154 856.579 119.7 857.343 Q117.269 858.107 114.492 859.658 L114.492 854.936 Q117.316 853.801 119.769 853.223 Q122.223 852.644 124.26 852.644 Q129.63 852.644 132.825 855.329 Q136.019 858.014 136.019 862.505 Q136.019 864.635 135.209 866.556 Q134.422 868.454 132.316 871.047 Q131.737 871.718 128.635 874.936 Q125.533 878.13 119.885 883.894 Z" fill="#000000" fill-rule="evenodd" fill-opacity="1"></path><path clip-path="url(#clip510)" d="M156.019 856.348 Q152.408 856.348 150.579 859.912 Q148.774 863.454 148.774 870.584 Q148.774 877.69 150.579 881.255 Q152.408 884.797 156.019 884.797 Q159.653 884.797 161.459 881.255 Q163.288 877.69 163.288 870.584 Q163.288 863.454 161.459 859.912 Q159.653 856.348 156.019 856.348 M156.019 852.644 Q161.829 852.644 164.885 857.25 Q167.964 861.834 167.964 870.584 Q167.964 879.31 164.885 883.917 Q161.829 888.5 156.019 888.5 Q150.209 888.5 147.13 883.917 Q144.075 879.31 144.075 870.584 Q144.075 861.834 147.13 857.25 Q150.209 852.644 156.019 852.644 Z" fill="#000000" fill-rule="evenodd" fill-opacity="1"></path><path clip-path="url(#clip510)" d="M120.88 648.845 L137.2 648.845 L137.2 652.78 L115.256 652.78 L115.256 648.845 Q117.918 646.09 122.501 641.461 Q127.107 636.808 128.288 635.466 Q130.533 632.942 131.413 631.206 Q132.316 629.447 132.316 627.757 Q132.316 625.003 130.371 623.267 Q128.45 621.53 125.348 621.53 Q123.149 621.53 120.695 622.294 Q118.265 623.058 115.487 624.609 L115.487 619.887 Q118.311 618.753 120.765 618.174 Q123.218 617.595 125.255 617.595 Q130.626 617.595 133.82 620.28 Q137.015 622.966 137.015 627.456 Q137.015 629.586 136.204 631.507 Q135.417 633.405 133.311 635.998 Q132.732 636.669 129.63 639.887 Q126.529 643.081 120.88 648.845 Z" fill="#000000" fill-rule="evenodd" fill-opacity="1"></path><path clip-path="url(#clip510)" d="M147.061 618.22 L165.417 618.22 L165.417 622.155 L151.343 622.155 L151.343 630.628 Q152.362 630.28 153.38 630.118 Q154.399 629.933 155.417 629.933 Q161.204 629.933 164.584 633.104 Q167.964 636.276 167.964 641.692 Q167.964 647.271 164.491 650.373 Q161.019 653.452 154.7 653.452 Q152.524 653.452 150.255 653.081 Q148.01 652.711 145.603 651.97 L145.603 647.271 Q147.686 648.405 149.908 648.961 Q152.13 649.516 154.607 649.516 Q158.612 649.516 160.95 647.41 Q163.288 645.303 163.288 641.692 Q163.288 638.081 160.95 635.975 Q158.612 633.868 154.607 633.868 Q152.732 633.868 150.857 634.285 Q149.005 634.702 147.061 635.581 L147.061 618.22 Z" fill="#000000" fill-rule="evenodd" fill-opacity="1"></path><path clip-path="url(#clip510)" d="M130.024 399.097 Q133.38 399.815 135.255 402.084 Q137.154 404.352 137.154 407.685 Q137.154 412.801 133.635 415.602 Q130.117 418.403 123.635 418.403 Q121.459 418.403 119.144 417.963 Q116.853 417.546 114.399 416.69 L114.399 412.176 Q116.343 413.31 118.658 413.889 Q120.973 414.468 123.496 414.468 Q127.894 414.468 130.186 412.732 Q132.501 410.996 132.501 407.685 Q132.501 404.63 130.348 402.917 Q128.218 401.181 124.399 401.181 L120.371 401.181 L120.371 397.338 L124.584 397.338 Q128.033 397.338 129.862 395.972 Q131.691 394.584 131.691 391.991 Q131.691 389.329 129.792 387.917 Q127.917 386.482 124.399 386.482 Q122.478 386.482 120.279 386.898 Q118.08 387.315 115.441 388.195 L115.441 384.028 Q118.103 383.287 120.418 382.917 Q122.755 382.547 124.816 382.547 Q130.14 382.547 133.242 384.977 Q136.343 387.385 136.343 391.505 Q136.343 394.375 134.7 396.366 Q133.056 398.334 130.024 399.097 Z" fill="#000000" fill-rule="evenodd" fill-opacity="1"></path><path clip-path="url(#clip510)" d="M156.019 386.25 Q152.408 386.25 150.579 389.815 Q148.774 393.357 148.774 400.486 Q148.774 407.593 150.579 411.158 Q152.408 414.699 156.019 414.699 Q159.653 414.699 161.459 411.158 Q163.288 407.593 163.288 400.486 Q163.288 393.357 161.459 389.815 Q159.653 386.25 156.019 386.25 M156.019 382.547 Q161.829 382.547 164.885 387.153 Q167.964 391.736 167.964 400.486 Q167.964 409.213 164.885 413.82 Q161.829 418.403 156.019 418.403 Q150.209 418.403 147.13 413.82 Q144.075 409.213 144.075 400.486 Q144.075 391.736 147.13 387.153 Q150.209 382.547 156.019 382.547 Z" fill="#000000" fill-rule="evenodd" fill-opacity="1"></path><path clip-path="url(#clip510)" d="M131.019 164.049 Q134.376 164.766 136.251 167.035 Q138.149 169.303 138.149 172.637 Q138.149 177.752 134.63 180.553 Q131.112 183.354 124.63 183.354 Q122.455 183.354 120.14 182.914 Q117.848 182.498 115.394 181.641 L115.394 177.127 Q117.339 178.262 119.654 178.84 Q121.968 179.419 124.492 179.419 Q128.89 179.419 131.181 177.683 Q133.496 175.947 133.496 172.637 Q133.496 169.581 131.343 167.868 Q129.214 166.132 125.394 166.132 L121.367 166.132 L121.367 162.289 L125.58 162.289 Q129.029 162.289 130.857 160.924 Q132.686 159.535 132.686 156.942 Q132.686 154.28 130.788 152.868 Q128.913 151.433 125.394 151.433 Q123.473 151.433 121.274 151.85 Q119.075 152.266 116.436 153.146 L116.436 148.979 Q119.098 148.239 121.413 147.868 Q123.751 147.498 125.811 147.498 Q131.135 147.498 134.237 149.928 Q137.339 152.336 137.339 156.456 Q137.339 159.327 135.695 161.317 Q134.052 163.285 131.019 164.049 Z" fill="#000000" fill-rule="evenodd" fill-opacity="1"></path><path clip-path="url(#clip510)" d="M147.061 148.123 L165.417 148.123 L165.417 152.058 L151.343 152.058 L151.343 160.53 Q152.362 160.183 153.38 160.021 Q154.399 159.836 155.417 159.836 Q161.204 159.836 164.584 163.007 Q167.964 166.178 167.964 171.595 Q167.964 177.174 164.491 180.275 Q161.019 183.354 154.7 183.354 Q152.524 183.354 150.255 182.984 Q148.01 182.613 145.603 181.873 L145.603 177.174 Q147.686 178.308 149.908 178.863 Q152.13 179.419 154.607 179.419 Q158.612 179.419 160.95 177.313 Q163.288 175.206 163.288 171.595 Q163.288 167.984 160.95 165.877 Q158.612 163.771 154.607 163.771 Q152.732 163.771 150.857 164.188 Q149.005 164.604 147.061 165.484 L147.061 148.123 Z" fill="#000000" fill-rule="evenodd" fill-opacity="1"></path><path clip-path="url(#clip510)" d="M28.3562 767.598 L28.3562 739.779 L33.7034 739.779 L59.3254 761.805 L59.3254 739.779 L64.0042 739.779 L64.0042 768.393 L58.657 768.393 L33.035 746.368 L33.035 767.598 L28.3562 767.598 Z" fill="#000000" fill-rule="evenodd" fill-opacity="1"></path><path clip-path="url(#clip510)" d="M58.5933 724.47 L58.5933 702.031 L64.0042 702.031 L64.0042 732.204 L58.5933 732.204 Q54.8057 728.544 48.44 722.242 Q42.0425 715.908 40.1964 714.285 Q36.7271 711.197 34.34 709.988 Q31.921 708.747 29.5975 708.747 Q25.8099 708.747 23.4228 711.42 Q21.0356 714.062 21.0356 718.327 Q21.0356 721.351 22.086 724.724 Q23.1363 728.066 25.2688 731.886 L18.7758 731.886 Q17.2162 728.003 16.4205 724.629 Q15.6248 721.255 15.6248 718.454 Q15.6248 711.07 19.3169 706.678 Q23.009 702.285 29.1837 702.285 Q32.112 702.285 34.7537 703.399 Q37.3637 704.482 40.9285 707.378 Q41.8515 708.174 46.2757 712.439 Q50.668 716.704 58.5933 724.47 Z" fill="#000000" fill-rule="evenodd" fill-opacity="1"></path><circle clip-path="url(#clip512)" cx="324.885" cy="1120.14" r="14.4" fill="#0000ff" fill-rule="evenodd" fill-opacity="1" stroke="#000000" stroke-opacity="1" stroke-width="3.2"></circle>
<circle clip-path="url(#clip512)" cx="339.545" cy="1104.41" r="14.4" fill="#0000ff" fill-rule="evenodd" fill-opacity="1" stroke="#000000" stroke-opacity="1" stroke-width="3.2"></circle>
<circle clip-path="url(#clip512)" cx="436.368" cy="1117.51" r="14.4" fill="#0000ff" fill-rule="evenodd" fill-opacity="1" stroke="#000000" stroke-opacity="1" stroke-width="3.2"></circle>
<circle clip-path="url(#clip512)" cx="296.644" cy="1384.24" r="14.4" fill="#0000ff" fill-rule="evenodd" fill-opacity="1" stroke="#000000" stroke-opacity="1" stroke-width="3.2"></circle>
<circle clip-path="url(#clip512)" cx="369.53" cy="1160.23" r="14.4" fill="#0000ff" fill-rule="evenodd" fill-opacity="1" stroke="#000000" stroke-opacity="1" stroke-width="3.2"></circle>
<circle clip-path="url(#clip512)" cx="438.684" cy="1099.96" r="14.4" fill="#0000ff" fill-rule="evenodd" fill-opacity="1" stroke="#000000" stroke-opacity="1" stroke-width="3.2"></circle>
<circle clip-path="url(#clip512)" cx="323.246" cy="1160.23" r="14.4" fill="#0000ff" fill-rule="evenodd" fill-opacity="1" stroke="#000000" stroke-opacity="1" stroke-width="3.2"></circle>
<circle clip-path="url(#clip512)" cx="455.858" cy="1146.2" r="14.4" fill="#0000ff" fill-rule="evenodd" fill-opacity="1" stroke="#000000" stroke-opacity="1" stroke-width="3.2"></circle>
<circle clip-path="url(#clip512)" cx="541.83" cy="1220.68" r="14.4" fill="#0000ff" fill-rule="evenodd" fill-opacity="1" stroke="#000000" stroke-opacity="1" stroke-width="3.2"></circle>
<circle clip-path="url(#clip512)" cx="264.778" cy="1290.05" r="14.4" fill="#0000ff" fill-rule="evenodd" fill-opacity="1" stroke="#000000" stroke-opacity="1" stroke-width="3.2"></circle>
<circle clip-path="url(#clip512)" cx="499.756" cy="1116.41" r="14.4" fill="#0000ff" fill-rule="evenodd" fill-opacity="1" stroke="#000000" stroke-opacity="1" stroke-width="3.2"></circle>
<circle clip-path="url(#clip512)" cx="501.518" cy="1220.68" r="14.4" fill="#0000ff" fill-rule="evenodd" fill-opacity="1" stroke="#000000" stroke-opacity="1" stroke-width="3.2"></circle>
<circle clip-path="url(#clip512)" cx="455.678" cy="1143.63" r="14.4" fill="#0000ff" fill-rule="evenodd" fill-opacity="1" stroke="#000000" stroke-opacity="1" stroke-width="3.2"></circle>
<circle clip-path="url(#clip512)" cx="368.089" cy="1143.46" r="14.4" fill="#0000ff" fill-rule="evenodd" fill-opacity="1" stroke="#000000" stroke-opacity="1" stroke-width="3.2"></circle>
<circle clip-path="url(#clip512)" cx="403.625" cy="1109.89" r="14.4" fill="#0000ff" fill-rule="evenodd" fill-opacity="1" stroke="#000000" stroke-opacity="1" stroke-width="3.2"></circle>
<circle clip-path="url(#clip512)" cx="455.714" cy="1160.23" r="14.4" fill="#0000ff" fill-rule="evenodd" fill-opacity="1" stroke="#000000" stroke-opacity="1" stroke-width="3.2"></circle>
<circle clip-path="url(#clip512)" cx="373.957" cy="1143.46" r="14.4" fill="#0000ff" fill-rule="evenodd" fill-opacity="1" stroke="#000000" stroke-opacity="1" stroke-width="3.2"></circle>
<circle clip-path="url(#clip512)" cx="442.444" cy="1100.06" r="14.4" fill="#0000ff" fill-rule="evenodd" fill-opacity="1" stroke="#000000" stroke-opacity="1" stroke-width="3.2"></circle>
<circle clip-path="url(#clip512)" cx="451.474" cy="1146.19" r="14.4" fill="#0000ff" fill-rule="evenodd" fill-opacity="1" stroke="#000000" stroke-opacity="1" stroke-width="3.2"></circle>
<circle clip-path="url(#clip512)" cx="297.509" cy="1235.03" r="14.4" fill="#0000ff" fill-rule="evenodd" fill-opacity="1" stroke="#000000" stroke-opacity="1" stroke-width="3.2"></circle>
<circle clip-path="url(#clip512)" cx="1312.14" cy="1114.67" r="14.4" fill="#ff0000" fill-rule="evenodd" fill-opacity="1" stroke="#000000" stroke-opacity="1" stroke-width="3.2"></circle>
<circle clip-path="url(#clip512)" cx="1574.92" cy="992.989" r="14.4" fill="#ff0000" fill-rule="evenodd" fill-opacity="1" stroke="#000000" stroke-opacity="1" stroke-width="3.2"></circle>
<circle clip-path="url(#clip512)" cx="1568.71" cy="1104.41" r="14.4" fill="#ff0000" fill-rule="evenodd" fill-opacity="1" stroke="#000000" stroke-opacity="1" stroke-width="3.2"></circle>
<circle clip-path="url(#clip512)" cx="1664.46" cy="992.248" r="14.4" fill="#ff0000" fill-rule="evenodd" fill-opacity="1" stroke="#000000" stroke-opacity="1" stroke-width="3.2"></circle>
<circle clip-path="url(#clip512)" cx="1573.63" cy="1127.8" r="14.4" fill="#ff0000" fill-rule="evenodd" fill-opacity="1" stroke="#000000" stroke-opacity="1" stroke-width="3.2"></circle>
<circle clip-path="url(#clip512)" cx="1650.61" cy="1109.89" r="14.4" fill="#ff0000" fill-rule="evenodd" fill-opacity="1" stroke="#000000" stroke-opacity="1" stroke-width="3.2"></circle>
<circle clip-path="url(#clip512)" cx="2077.75" cy="1143.02" r="14.4" fill="#ff0000" fill-rule="evenodd" fill-opacity="1" stroke="#000000" stroke-opacity="1" stroke-width="3.2"></circle>
<circle clip-path="url(#clip512)" cx="1419.56" cy="992.989" r="14.4" fill="#ff0000" fill-rule="evenodd" fill-opacity="1" stroke="#000000" stroke-opacity="1" stroke-width="3.2"></circle>
<circle clip-path="url(#clip512)" cx="1567.97" cy="1104.81" r="14.4" fill="#ff0000" fill-rule="evenodd" fill-opacity="1" stroke="#000000" stroke-opacity="1" stroke-width="3.2"></circle>
<circle clip-path="url(#clip512)" cx="2291.94" cy="565.421" r="14.4" fill="#ff0000" fill-rule="evenodd" fill-opacity="1" stroke="#000000" stroke-opacity="1" stroke-width="3.2"></circle>
<circle clip-path="url(#clip512)" cx="1465.04" cy="992.146" r="14.4" fill="#ff0000" fill-rule="evenodd" fill-opacity="1" stroke="#000000" stroke-opacity="1" stroke-width="3.2"></circle>
<circle clip-path="url(#clip512)" cx="1486.94" cy="1100.06" r="14.4" fill="#ff0000" fill-rule="evenodd" fill-opacity="1" stroke="#000000" stroke-opacity="1" stroke-width="3.2"></circle>
<circle clip-path="url(#clip512)" cx="1966.97" cy="992.436" r="14.4" fill="#ff0000" fill-rule="evenodd" fill-opacity="1" stroke="#000000" stroke-opacity="1" stroke-width="3.2"></circle>
<circle clip-path="url(#clip512)" cx="1249.68" cy="1171.08" r="14.4" fill="#ff0000" fill-rule="evenodd" fill-opacity="1" stroke="#000000" stroke-opacity="1" stroke-width="3.2"></circle>
<circle clip-path="url(#clip512)" cx="1732.97" cy="1138.24" r="14.4" fill="#ff0000" fill-rule="evenodd" fill-opacity="1" stroke="#000000" stroke-opacity="1" stroke-width="3.2"></circle>
<circle clip-path="url(#clip512)" cx="1572.11" cy="992.579" r="14.4" fill="#ff0000" fill-rule="evenodd" fill-opacity="1" stroke="#000000" stroke-opacity="1" stroke-width="3.2"></circle>
<circle clip-path="url(#clip512)" cx="1298.17" cy="1143.4" r="14.4" fill="#ff0000" fill-rule="evenodd" fill-opacity="1" stroke="#000000" stroke-opacity="1" stroke-width="3.2"></circle>
<circle clip-path="url(#clip512)" cx="1300.34" cy="1114.03" r="14.4" fill="#ff0000" fill-rule="evenodd" fill-opacity="1" stroke="#000000" stroke-opacity="1" stroke-width="3.2"></circle>
<circle clip-path="url(#clip512)" cx="1469.51" cy="992.436" r="14.4" fill="#ff0000" fill-rule="evenodd" fill-opacity="1" stroke="#000000" stroke-opacity="1" stroke-width="3.2"></circle>
<circle clip-path="url(#clip512)" cx="1344.34" cy="1208.64" r="14.4" fill="#ff0000" fill-rule="evenodd" fill-opacity="1" stroke="#000000" stroke-opacity="1" stroke-width="3.2"></circle>
<circle clip-path="url(#clip512)" cx="1427.44" cy="1101.15" r="14.4" fill="#ee82ee" fill-rule="evenodd" fill-opacity="1" stroke="#000000" stroke-opacity="1" stroke-width="3.2"></circle>
<circle clip-path="url(#clip512)" cx="1020.92" cy="1145.06" r="14.4" fill="#ee82ee" fill-rule="evenodd" fill-opacity="1" stroke="#000000" stroke-opacity="1" stroke-width="3.2"></circle>
<circle clip-path="url(#clip512)" cx="964.83" cy="1101.63" r="14.4" fill="#ee82ee" fill-rule="evenodd" fill-opacity="1" stroke="#000000" stroke-opacity="1" stroke-width="3.2"></circle>
<circle clip-path="url(#clip512)" cx="1131.88" cy="992.319" r="14.4" fill="#ee82ee" fill-rule="evenodd" fill-opacity="1" stroke="#000000" stroke-opacity="1" stroke-width="3.2"></circle>
<circle clip-path="url(#clip512)" cx="886.316" cy="1171.08" r="14.4" fill="#ee82ee" fill-rule="evenodd" fill-opacity="1" stroke="#000000" stroke-opacity="1" stroke-width="3.2"></circle>
<circle clip-path="url(#clip512)" cx="978.139" cy="1114.03" r="14.4" fill="#ee82ee" fill-rule="evenodd" fill-opacity="1" stroke="#000000" stroke-opacity="1" stroke-width="3.2"></circle>
<circle clip-path="url(#clip512)" cx="1194.13" cy="1128.96" r="14.4" fill="#ee82ee" fill-rule="evenodd" fill-opacity="1" stroke="#000000" stroke-opacity="1" stroke-width="3.2"></circle>
<circle clip-path="url(#clip512)" cx="1383.61" cy="992.989" r="14.4" fill="#ee82ee" fill-rule="evenodd" fill-opacity="1" stroke="#000000" stroke-opacity="1" stroke-width="3.2"></circle>
<circle clip-path="url(#clip512)" cx="1122.09" cy="1146.29" r="14.4" fill="#ee82ee" fill-rule="evenodd" fill-opacity="1" stroke="#000000" stroke-opacity="1" stroke-width="3.2"></circle>
<circle clip-path="url(#clip512)" cx="1101.4" cy="1131.04" r="14.4" fill="#ee82ee" fill-rule="evenodd" fill-opacity="1" stroke="#000000" stroke-opacity="1" stroke-width="3.2"></circle>
<circle clip-path="url(#clip512)" cx="879.442" cy="1171.36" r="14.4" fill="#ee82ee" fill-rule="evenodd" fill-opacity="1" stroke="#000000" stroke-opacity="1" stroke-width="3.2"></circle>
<circle clip-path="url(#clip512)" cx="813.256" cy="1138.34" r="14.4" fill="#ee82ee" fill-rule="evenodd" fill-opacity="1" stroke="#000000" stroke-opacity="1" stroke-width="3.2"></circle>
<circle clip-path="url(#clip512)" cx="773.012" cy="1078.74" r="14.4" fill="#ee82ee" fill-rule="evenodd" fill-opacity="1" stroke="#000000" stroke-opacity="1" stroke-width="3.2"></circle>
<circle clip-path="url(#clip512)" cx="991.244" cy="1096.79" r="14.4" fill="#ee82ee" fill-rule="evenodd" fill-opacity="1" stroke="#000000" stroke-opacity="1" stroke-width="3.2"></circle>
<circle clip-path="url(#clip512)" cx="1119.66" cy="1127.8" r="14.4" fill="#ee82ee" fill-rule="evenodd" fill-opacity="1" stroke="#000000" stroke-opacity="1" stroke-width="3.2"></circle>
<circle clip-path="url(#clip512)" cx="1049.2" cy="1138.24" r="14.4" fill="#ee82ee" fill-rule="evenodd" fill-opacity="1" stroke="#000000" stroke-opacity="1" stroke-width="3.2"></circle>
<circle clip-path="url(#clip512)" cx="882.695" cy="1141.89" r="14.4" fill="#ee82ee" fill-rule="evenodd" fill-opacity="1" stroke="#000000" stroke-opacity="1" stroke-width="3.2"></circle>
<circle clip-path="url(#clip512)" cx="1446.13" cy="86.1857" r="14.4" fill="#ee82ee" fill-rule="evenodd" fill-opacity="1" stroke="#000000" stroke-opacity="1" stroke-width="3.2"></circle>
<circle clip-path="url(#clip512)" cx="1200.87" cy="1144.89" r="14.4" fill="#ee82ee" fill-rule="evenodd" fill-opacity="1" stroke="#000000" stroke-opacity="1" stroke-width="3.2"></circle>
<circle clip-path="url(#clip512)" cx="808.02" cy="1143.36" r="14.4" fill="#ee82ee" fill-rule="evenodd" fill-opacity="1" stroke="#000000" stroke-opacity="1" stroke-width="3.2"></circle>
<path clip-path="url(#clip510)" d="
M1784.46 300.469 L2281.13 300.469 L2281.13 93.1086 L1784.46 93.1086  Z
  " fill="#ffffff" fill-rule="evenodd" fill-opacity="1"></path>
<polyline clip-path="url(#clip510)" style="stroke:#000000; stroke-linecap:round; stroke-linejoin:round; stroke-width:4; stroke-opacity:1; fill:none" points="
  1784.46,300.469 2281.13,300.469 2281.13,93.1086 1784.46,93.1086 1784.46,300.469 
  "></polyline>
<circle clip-path="url(#clip510)" cx="1879.96" cy="144.949" r="23.04" fill="#0000ff" fill-rule="evenodd" fill-opacity="1" stroke="#000000" stroke-opacity="1" stroke-width="5.12"></circle>
<path clip-path="url(#clip510)" d="M1975.46 126.21 L1979.72 126.21 L1979.72 162.229 L1975.46 162.229 L1975.46 126.21 Z" fill="#000000" fill-rule="evenodd" fill-opacity="1"></path><path clip-path="url(#clip510)" d="M2010.81 148.201 L2010.81 150.284 L1991.23 150.284 Q1991.5 154.682 1993.87 156.997 Q1996.25 159.289 2000.49 159.289 Q2002.94 159.289 2005.23 158.687 Q2007.55 158.085 2009.81 156.881 L2009.81 160.909 Q2007.52 161.881 2005.12 162.391 Q2002.71 162.9 2000.23 162.9 Q1994.03 162.9 1990.39 159.289 Q1986.78 155.678 1986.78 149.52 Q1986.78 143.155 1990.21 139.428 Q1993.66 135.678 1999.49 135.678 Q2004.72 135.678 2007.75 139.057 Q2010.81 142.414 2010.81 148.201 M2006.55 146.951 Q2006.5 143.456 2004.58 141.372 Q2002.69 139.289 1999.54 139.289 Q1995.97 139.289 1993.82 141.303 Q1991.69 143.317 1991.37 146.974 L2006.55 146.951 Z" fill="#000000" fill-rule="evenodd" fill-opacity="1"></path><path clip-path="url(#clip510)" d="M2029.58 149.196 Q2024.42 149.196 2022.43 150.377 Q2020.44 151.557 2020.44 154.405 Q2020.44 156.673 2021.92 158.016 Q2023.43 159.335 2026 159.335 Q2029.54 159.335 2031.67 156.835 Q2033.82 154.312 2033.82 150.145 L2033.82 149.196 L2029.58 149.196 M2038.08 147.437 L2038.08 162.229 L2033.82 162.229 L2033.82 158.293 Q2032.36 160.655 2030.19 161.789 Q2028.01 162.9 2024.86 162.9 Q2020.88 162.9 2018.52 160.678 Q2016.18 158.432 2016.18 154.682 Q2016.18 150.307 2019.1 148.085 Q2022.04 145.863 2027.85 145.863 L2033.82 145.863 L2033.82 145.446 Q2033.82 142.507 2031.88 140.909 Q2029.95 139.289 2026.46 139.289 Q2024.24 139.289 2022.13 139.821 Q2020.02 140.354 2018.08 141.419 L2018.08 137.483 Q2020.42 136.581 2022.62 136.141 Q2024.81 135.678 2026.9 135.678 Q2032.52 135.678 2035.3 138.594 Q2038.08 141.511 2038.08 147.437 Z" fill="#000000" fill-rule="evenodd" fill-opacity="1"></path><path clip-path="url(#clip510)" d="M2063.91 140.238 L2063.91 126.21 L2068.17 126.21 L2068.17 162.229 L2063.91 162.229 L2063.91 158.34 Q2062.57 160.655 2060.51 161.789 Q2058.47 162.9 2055.6 162.9 Q2050.9 162.9 2047.94 159.15 Q2045 155.4 2045 149.289 Q2045 143.178 2047.94 139.428 Q2050.9 135.678 2055.6 135.678 Q2058.47 135.678 2060.51 136.812 Q2062.57 137.923 2063.91 140.238 M2049.4 149.289 Q2049.4 153.988 2051.32 156.673 Q2053.26 159.335 2056.64 159.335 Q2060.02 159.335 2061.97 156.673 Q2063.91 153.988 2063.91 149.289 Q2063.91 144.59 2061.97 141.928 Q2060.02 139.243 2056.64 139.243 Q2053.26 139.243 2051.32 141.928 Q2049.4 144.59 2049.4 149.289 Z" fill="#000000" fill-rule="evenodd" fill-opacity="1"></path><path clip-path="url(#clip510)" d="M2102.06 139.289 Q2098.63 139.289 2096.64 141.974 Q2094.65 144.636 2094.65 149.289 Q2094.65 153.942 2096.62 156.627 Q2098.61 159.289 2102.06 159.289 Q2105.46 159.289 2107.45 156.604 Q2109.44 153.918 2109.44 149.289 Q2109.44 144.682 2107.45 141.997 Q2105.46 139.289 2102.06 139.289 M2102.06 135.678 Q2107.62 135.678 2110.79 139.289 Q2113.96 142.9 2113.96 149.289 Q2113.96 155.655 2110.79 159.289 Q2107.62 162.9 2102.06 162.9 Q2096.48 162.9 2093.31 159.289 Q2090.16 155.655 2090.16 149.289 Q2090.16 142.9 2093.31 139.289 Q2096.48 135.678 2102.06 135.678 Z" fill="#000000" fill-rule="evenodd" fill-opacity="1"></path><path clip-path="url(#clip510)" d="M2139.63 149.289 Q2139.63 144.59 2137.68 141.928 Q2135.76 139.243 2132.38 139.243 Q2129 139.243 2127.06 141.928 Q2125.14 144.59 2125.14 149.289 Q2125.14 153.988 2127.06 156.673 Q2129 159.335 2132.38 159.335 Q2135.76 159.335 2137.68 156.673 Q2139.63 153.988 2139.63 149.289 M2125.14 140.238 Q2126.48 137.923 2128.52 136.812 Q2130.58 135.678 2133.43 135.678 Q2138.15 135.678 2141.09 139.428 Q2144.05 143.178 2144.05 149.289 Q2144.05 155.4 2141.09 159.15 Q2138.15 162.9 2133.43 162.9 Q2130.58 162.9 2128.52 161.789 Q2126.48 160.655 2125.14 158.34 L2125.14 162.229 L2120.86 162.229 L2120.86 126.21 L2125.14 126.21 L2125.14 140.238 Z" fill="#000000" fill-rule="evenodd" fill-opacity="1"></path><path clip-path="url(#clip510)" d="M2151.11 136.303 L2155.37 136.303 L2155.37 162.692 Q2155.37 167.645 2153.47 169.867 Q2151.6 172.09 2147.41 172.09 L2145.79 172.09 L2145.79 168.479 L2146.92 168.479 Q2149.35 168.479 2150.23 167.344 Q2151.11 166.233 2151.11 162.692 L2151.11 136.303 M2151.11 126.21 L2155.37 126.21 L2155.37 131.604 L2151.11 131.604 L2151.11 126.21 Z" fill="#000000" fill-rule="evenodd" fill-opacity="1"></path><path clip-path="url(#clip510)" d="M2180.76 158.293 L2188.4 158.293 L2188.4 131.928 L2180.09 133.595 L2180.09 129.335 L2188.36 127.669 L2193.03 127.669 L2193.03 158.293 L2200.67 158.293 L2200.67 162.229 L2180.76 162.229 L2180.76 158.293 Z" fill="#000000" fill-rule="evenodd" fill-opacity="1"></path><circle clip-path="url(#clip510)" cx="1879.96" cy="196.789" r="23.04" fill="#ff0000" fill-rule="evenodd" fill-opacity="1" stroke="#000000" stroke-opacity="1" stroke-width="5.12"></circle>
<path clip-path="url(#clip510)" d="M1975.46 178.05 L1979.72 178.05 L1979.72 214.069 L1975.46 214.069 L1975.46 178.05 Z" fill="#000000" fill-rule="evenodd" fill-opacity="1"></path><path clip-path="url(#clip510)" d="M2010.81 200.041 L2010.81 202.124 L1991.23 202.124 Q1991.5 206.522 1993.87 208.837 Q1996.25 211.129 2000.49 211.129 Q2002.94 211.129 2005.23 210.527 Q2007.55 209.925 2009.81 208.721 L2009.81 212.749 Q2007.52 213.721 2005.12 214.231 Q2002.71 214.74 2000.23 214.74 Q1994.03 214.74 1990.39 211.129 Q1986.78 207.518 1986.78 201.36 Q1986.78 194.995 1990.21 191.268 Q1993.66 187.518 1999.49 187.518 Q2004.72 187.518 2007.75 190.897 Q2010.81 194.254 2010.81 200.041 M2006.55 198.791 Q2006.5 195.296 2004.58 193.212 Q2002.69 191.129 1999.54 191.129 Q1995.97 191.129 1993.82 193.143 Q1991.69 195.157 1991.37 198.814 L2006.55 198.791 Z" fill="#000000" fill-rule="evenodd" fill-opacity="1"></path><path clip-path="url(#clip510)" d="M2029.58 201.036 Q2024.42 201.036 2022.43 202.217 Q2020.44 203.397 2020.44 206.245 Q2020.44 208.513 2021.92 209.856 Q2023.43 211.175 2026 211.175 Q2029.54 211.175 2031.67 208.675 Q2033.82 206.152 2033.82 201.985 L2033.82 201.036 L2029.58 201.036 M2038.08 199.277 L2038.08 214.069 L2033.82 214.069 L2033.82 210.133 Q2032.36 212.495 2030.19 213.629 Q2028.01 214.74 2024.86 214.74 Q2020.88 214.74 2018.52 212.518 Q2016.18 210.272 2016.18 206.522 Q2016.18 202.147 2019.1 199.925 Q2022.04 197.703 2027.85 197.703 L2033.82 197.703 L2033.82 197.286 Q2033.82 194.347 2031.88 192.749 Q2029.95 191.129 2026.46 191.129 Q2024.24 191.129 2022.13 191.661 Q2020.02 192.194 2018.08 193.259 L2018.08 189.323 Q2020.42 188.421 2022.62 187.981 Q2024.81 187.518 2026.9 187.518 Q2032.52 187.518 2035.3 190.434 Q2038.08 193.351 2038.08 199.277 Z" fill="#000000" fill-rule="evenodd" fill-opacity="1"></path><path clip-path="url(#clip510)" d="M2063.91 192.078 L2063.91 178.05 L2068.17 178.05 L2068.17 214.069 L2063.91 214.069 L2063.91 210.18 Q2062.57 212.495 2060.51 213.629 Q2058.47 214.74 2055.6 214.74 Q2050.9 214.74 2047.94 210.99 Q2045 207.24 2045 201.129 Q2045 195.018 2047.94 191.268 Q2050.9 187.518 2055.6 187.518 Q2058.47 187.518 2060.51 188.652 Q2062.57 189.763 2063.91 192.078 M2049.4 201.129 Q2049.4 205.828 2051.32 208.513 Q2053.26 211.175 2056.64 211.175 Q2060.02 211.175 2061.97 208.513 Q2063.91 205.828 2063.91 201.129 Q2063.91 196.43 2061.97 193.768 Q2060.02 191.083 2056.64 191.083 Q2053.26 191.083 2051.32 193.768 Q2049.4 196.43 2049.4 201.129 Z" fill="#000000" fill-rule="evenodd" fill-opacity="1"></path><path clip-path="url(#clip510)" d="M2102.06 191.129 Q2098.63 191.129 2096.64 193.814 Q2094.65 196.476 2094.65 201.129 Q2094.65 205.782 2096.62 208.467 Q2098.61 211.129 2102.06 211.129 Q2105.46 211.129 2107.45 208.444 Q2109.44 205.758 2109.44 201.129 Q2109.44 196.522 2107.45 193.837 Q2105.46 191.129 2102.06 191.129 M2102.06 187.518 Q2107.62 187.518 2110.79 191.129 Q2113.96 194.74 2113.96 201.129 Q2113.96 207.495 2110.79 211.129 Q2107.62 214.74 2102.06 214.74 Q2096.48 214.74 2093.31 211.129 Q2090.16 207.495 2090.16 201.129 Q2090.16 194.74 2093.31 191.129 Q2096.48 187.518 2102.06 187.518 Z" fill="#000000" fill-rule="evenodd" fill-opacity="1"></path><path clip-path="url(#clip510)" d="M2139.63 201.129 Q2139.63 196.43 2137.68 193.768 Q2135.76 191.083 2132.38 191.083 Q2129 191.083 2127.06 193.768 Q2125.14 196.43 2125.14 201.129 Q2125.14 205.828 2127.06 208.513 Q2129 211.175 2132.38 211.175 Q2135.76 211.175 2137.68 208.513 Q2139.63 205.828 2139.63 201.129 M2125.14 192.078 Q2126.48 189.763 2128.52 188.652 Q2130.58 187.518 2133.43 187.518 Q2138.15 187.518 2141.09 191.268 Q2144.05 195.018 2144.05 201.129 Q2144.05 207.24 2141.09 210.99 Q2138.15 214.74 2133.43 214.74 Q2130.58 214.74 2128.52 213.629 Q2126.48 212.495 2125.14 210.18 L2125.14 214.069 L2120.86 214.069 L2120.86 178.05 L2125.14 178.05 L2125.14 192.078 Z" fill="#000000" fill-rule="evenodd" fill-opacity="1"></path><path clip-path="url(#clip510)" d="M2151.11 188.143 L2155.37 188.143 L2155.37 214.532 Q2155.37 219.485 2153.47 221.707 Q2151.6 223.93 2147.41 223.93 L2145.79 223.93 L2145.79 220.319 L2146.92 220.319 Q2149.35 220.319 2150.23 219.184 Q2151.11 218.073 2151.11 214.532 L2151.11 188.143 M2151.11 178.05 L2155.37 178.05 L2155.37 183.444 L2151.11 183.444 L2151.11 178.05 Z" fill="#000000" fill-rule="evenodd" fill-opacity="1"></path><path clip-path="url(#clip510)" d="M2183.98 210.133 L2200.3 210.133 L2200.3 214.069 L2178.36 214.069 L2178.36 210.133 Q2181.02 207.379 2185.6 202.749 Q2190.21 198.096 2191.39 196.754 Q2193.63 194.231 2194.51 192.495 Q2195.42 190.735 2195.42 189.046 Q2195.42 186.291 2193.47 184.555 Q2191.55 182.819 2188.45 182.819 Q2186.25 182.819 2183.8 183.583 Q2181.36 184.347 2178.59 185.897 L2178.59 181.175 Q2181.41 180.041 2183.86 179.462 Q2186.32 178.884 2188.36 178.884 Q2193.73 178.884 2196.92 181.569 Q2200.11 184.254 2200.11 188.745 Q2200.11 190.874 2199.3 192.796 Q2198.52 194.694 2196.41 197.286 Q2195.83 197.958 2192.73 201.175 Q2189.63 204.37 2183.98 210.133 Z" fill="#000000" fill-rule="evenodd" fill-opacity="1"></path><circle clip-path="url(#clip510)" cx="1879.96" cy="248.629" r="23.04" fill="#ee82ee" fill-rule="evenodd" fill-opacity="1" stroke="#000000" stroke-opacity="1" stroke-width="5.12"></circle>
<path clip-path="url(#clip510)" d="M1995.97 240.978 L1995.97 244.96 Q1994.17 243.964 1992.34 243.478 Q1990.53 242.969 1988.68 242.969 Q1984.54 242.969 1982.25 245.608 Q1979.95 248.224 1979.95 252.969 Q1979.95 257.714 1982.25 260.353 Q1984.54 262.969 1988.68 262.969 Q1990.53 262.969 1992.34 262.483 Q1994.17 261.973 1995.97 260.978 L1995.97 264.913 Q1994.19 265.747 1992.27 266.163 Q1990.37 266.58 1988.22 266.58 Q1982.36 266.58 1978.91 262.899 Q1975.46 259.219 1975.46 252.969 Q1975.46 246.626 1978.94 242.992 Q1982.43 239.358 1988.5 239.358 Q1990.46 239.358 1992.34 239.775 Q1994.21 240.168 1995.97 240.978 Z" fill="#000000" fill-rule="evenodd" fill-opacity="1"></path><path clip-path="url(#clip510)" d="M2013.43 242.969 Q2010 242.969 2008.01 245.654 Q2006.02 248.316 2006.02 252.969 Q2006.02 257.622 2007.99 260.307 Q2009.98 262.969 2013.43 262.969 Q2016.83 262.969 2018.82 260.284 Q2020.81 257.598 2020.81 252.969 Q2020.81 248.362 2018.82 245.677 Q2016.83 242.969 2013.43 242.969 M2013.43 239.358 Q2018.98 239.358 2022.15 242.969 Q2025.32 246.58 2025.32 252.969 Q2025.32 259.335 2022.15 262.969 Q2018.98 266.58 2013.43 266.58 Q2007.85 266.58 2004.68 262.969 Q2001.53 259.335 2001.53 252.969 Q2001.53 246.58 2004.68 242.969 Q2007.85 239.358 2013.43 239.358 Z" fill="#000000" fill-rule="evenodd" fill-opacity="1"></path><path clip-path="url(#clip510)" d="M2052.57 244.96 Q2054.17 242.089 2056.39 240.724 Q2058.61 239.358 2061.62 239.358 Q2065.67 239.358 2067.87 242.205 Q2070.07 245.029 2070.07 250.261 L2070.07 265.909 L2065.79 265.909 L2065.79 250.399 Q2065.79 246.673 2064.47 244.867 Q2063.15 243.062 2060.44 243.062 Q2057.13 243.062 2055.21 245.261 Q2053.29 247.46 2053.29 251.256 L2053.29 265.909 L2049 265.909 L2049 250.399 Q2049 246.649 2047.69 244.867 Q2046.37 243.062 2043.61 243.062 Q2040.35 243.062 2038.43 245.284 Q2036.5 247.483 2036.5 251.256 L2036.5 265.909 L2032.22 265.909 L2032.22 239.983 L2036.5 239.983 L2036.5 244.011 Q2037.96 241.626 2040 240.492 Q2042.04 239.358 2044.84 239.358 Q2047.66 239.358 2049.63 240.793 Q2051.62 242.228 2052.57 244.96 Z" fill="#000000" fill-rule="evenodd" fill-opacity="1"></path><path clip-path="url(#clip510)" d="M2082.68 262.02 L2082.68 275.77 L2078.4 275.77 L2078.4 239.983 L2082.68 239.983 L2082.68 243.918 Q2084.03 241.603 2086.06 240.492 Q2088.12 239.358 2090.97 239.358 Q2095.69 239.358 2098.63 243.108 Q2101.6 246.858 2101.6 252.969 Q2101.6 259.08 2098.63 262.83 Q2095.69 266.58 2090.97 266.58 Q2088.12 266.58 2086.06 265.469 Q2084.03 264.335 2082.68 262.02 M2097.18 252.969 Q2097.18 248.27 2095.23 245.608 Q2093.31 242.923 2089.93 242.923 Q2086.55 242.923 2084.61 245.608 Q2082.68 248.27 2082.68 252.969 Q2082.68 257.668 2084.61 260.353 Q2086.55 263.015 2089.93 263.015 Q2093.31 263.015 2095.23 260.353 Q2097.18 257.668 2097.18 252.969 Z" fill="#000000" fill-rule="evenodd" fill-opacity="1"></path><path clip-path="url(#clip510)" d="M2123.68 243.964 Q2122.96 243.548 2122.11 243.362 Q2121.27 243.154 2120.25 243.154 Q2116.64 243.154 2114.7 245.515 Q2112.78 247.853 2112.78 252.251 L2112.78 265.909 L2108.49 265.909 L2108.49 239.983 L2112.78 239.983 L2112.78 244.011 Q2114.12 241.649 2116.27 240.515 Q2118.43 239.358 2121.5 239.358 Q2121.94 239.358 2122.48 239.427 Q2123.01 239.474 2123.66 239.589 L2123.68 243.964 Z" fill="#000000" fill-rule="evenodd" fill-opacity="1"></path><path clip-path="url(#clip510)" d="M2137.15 242.969 Q2133.73 242.969 2131.74 245.654 Q2129.74 248.316 2129.74 252.969 Q2129.74 257.622 2131.71 260.307 Q2133.7 262.969 2137.15 262.969 Q2140.55 262.969 2142.55 260.284 Q2144.54 257.598 2144.54 252.969 Q2144.54 248.362 2142.55 245.677 Q2140.55 242.969 2137.15 242.969 M2137.15 239.358 Q2142.71 239.358 2145.88 242.969 Q2149.05 246.58 2149.05 252.969 Q2149.05 259.335 2145.88 262.969 Q2142.71 266.58 2137.15 266.58 Q2131.57 266.58 2128.4 262.969 Q2125.25 259.335 2125.25 252.969 Q2125.25 246.58 2128.4 242.969 Q2131.57 239.358 2137.15 239.358 Z" fill="#000000" fill-rule="evenodd" fill-opacity="1"></path><path clip-path="url(#clip510)" d="M2176.3 244.96 Q2177.89 242.089 2180.11 240.724 Q2182.34 239.358 2185.35 239.358 Q2189.4 239.358 2191.6 242.205 Q2193.8 245.029 2193.8 250.261 L2193.8 265.909 L2189.51 265.909 L2189.51 250.399 Q2189.51 246.673 2188.19 244.867 Q2186.87 243.062 2184.17 243.062 Q2180.86 243.062 2178.93 245.261 Q2177.01 247.46 2177.01 251.256 L2177.01 265.909 L2172.73 265.909 L2172.73 250.399 Q2172.73 246.649 2171.41 244.867 Q2170.09 243.062 2167.34 243.062 Q2164.07 243.062 2162.15 245.284 Q2160.23 247.483 2160.23 251.256 L2160.23 265.909 L2155.95 265.909 L2155.95 239.983 L2160.23 239.983 L2160.23 244.011 Q2161.69 241.626 2163.73 240.492 Q2165.76 239.358 2168.56 239.358 Q2171.39 239.358 2173.36 240.793 Q2175.35 242.228 2176.3 244.96 Z" fill="#000000" fill-rule="evenodd" fill-opacity="1"></path><path clip-path="url(#clip510)" d="M2202.29 239.983 L2206.55 239.983 L2206.55 265.909 L2202.29 265.909 L2202.29 239.983 M2202.29 229.89 L2206.55 229.89 L2206.55 235.284 L2202.29 235.284 L2202.29 229.89 Z" fill="#000000" fill-rule="evenodd" fill-opacity="1"></path><path clip-path="url(#clip510)" d="M2231.99 240.747 L2231.99 244.774 Q2230.18 243.849 2228.24 243.386 Q2226.3 242.923 2224.21 242.923 Q2221.04 242.923 2219.44 243.895 Q2217.87 244.867 2217.87 246.811 Q2217.87 248.293 2219 249.149 Q2220.14 249.983 2223.56 250.747 L2225.02 251.071 Q2229.56 252.043 2231.46 253.825 Q2233.38 255.585 2233.38 258.756 Q2233.38 262.367 2230.51 264.473 Q2227.66 266.58 2222.66 266.58 Q2220.58 266.58 2218.31 266.163 Q2216.06 265.77 2213.56 264.96 L2213.56 260.561 Q2215.92 261.788 2218.22 262.413 Q2220.51 263.015 2222.75 263.015 Q2225.76 263.015 2227.38 261.997 Q2229 260.955 2229 259.08 Q2229 257.344 2227.82 256.418 Q2226.67 255.492 2222.71 254.636 L2221.23 254.288 Q2217.27 253.455 2215.51 251.742 Q2213.75 250.006 2213.75 246.997 Q2213.75 243.339 2216.34 241.349 Q2218.93 239.358 2223.7 239.358 Q2226.06 239.358 2228.15 239.705 Q2230.23 240.052 2231.99 240.747 Z" fill="#000000" fill-rule="evenodd" fill-opacity="1"></path></svg>